<svg xmlns="http://www.w3.org/2000/svg" xmlns:svg="http://www.w3.org/2000/svg" id="svg153" width="640" height="480" version="1.1"><metadata id="metadata3151"/><desc id="desc3066">The United States of America flag, produced by Daniel McRae</desc><defs id="defs155"><clipPath id="clipPath6304" clipPathUnits="userSpaceOnUse"><rect id="rect6306" width="130" height="130" x="0" y="0" style="fill:#000;fill-opacity:.67000002;stroke:none"/></clipPath><clipPath id="clipPath4293" clipPathUnits="userSpaceOnUse"><rect id="rect4295" width="682.667" height="512" x="0" y="0" style="fill:#000;fill-opacity:.67000002;stroke:none"/></clipPath><clipPath id="clipPath4164" clipPathUnits="userSpaceOnUse"><rect style="opacity:.744;fill:#000;fill-opacity:1;stroke:#000;stroke-width:2.14086294;stroke-linejoin:round;stroke-miterlimit:4;stroke-dasharray:none;stroke-opacity:1" id="rect4166" width="995.302" height="557.947" x="-160.838" y="59.012"/></clipPath><clipPath id="clipPath4168" clipPathUnits="userSpaceOnUse"><rect style="opacity:.744;fill:#000;fill-opacity:1;stroke:#000;stroke-width:2.14086294;stroke-linejoin:round;stroke-miterlimit:4;stroke-dasharray:none;stroke-opacity:1" id="rect4170" width="995.302" height="557.947" x="-160.838" y="59.012"/></clipPath><clipPath id="clipPath4172" clipPathUnits="userSpaceOnUse"><rect style="opacity:.744;fill:#000;fill-opacity:1;stroke:#000;stroke-width:2.14086294;stroke-linejoin:round;stroke-miterlimit:4;stroke-dasharray:none;stroke-opacity:1" id="rect4174" width="995.302" height="557.947" x="-160.838" y="59.012"/></clipPath></defs><path style="fill:#d52b1e" id="path4" d="m -163.1866,57.985402 0,559.999998 999.99996,0 0,-559.999998 z" clip-path="url(#clipPath4172)" transform="matrix(0.64302083,0,0,0.86029607,103.42195,-50.767544)"/><path style="stroke:#009b48;stroke-width:86" id="path6" d="M -163.1866,57.985402 836.81336,617.9854 m 0,-559.999998 L -163.1866,617.9854" clip-path="url(#clipPath4168)" transform="matrix(0.64302083,0,0,0.86029607,103.42195,-50.767544)"/><path style="stroke:#fff;stroke-width:86" id="path8" d="m 336.81341,57.985402 0,559.999998 m -500.00001,-280 999.99996,0" clip-path="url(#clipPath4164)" transform="matrix(0.64302083,0,0,0.86029607,103.42195,-50.767544)"/></svg>