<svg xmlns="http://www.w3.org/2000/svg" xmlns:svg="http://www.w3.org/2000/svg" xmlns:xlink="http://www.w3.org/1999/xlink" id="svg153" width="640" height="480" version="1.1"><metadata id="metadata3151"/><desc id="desc3066">The United States of America flag, produced by Daniel McRae</desc><defs id="defs155"><clipPath id="clipPath6304" clipPathUnits="userSpaceOnUse"><rect id="rect6306" width="130" height="130" x="0" y="0" style="fill:#000;fill-opacity:.67000002;stroke:none"/></clipPath><clipPath id="clipPath4293" clipPathUnits="userSpaceOnUse"><rect id="rect4295" width="682.667" height="512" x="0" y="0" style="fill:#000;fill-opacity:.67000002;stroke:none"/></clipPath><clipPath id="clipPath4164" clipPathUnits="userSpaceOnUse"><rect style="opacity:.744;fill:#000;fill-opacity:1;stroke:#000;stroke-width:2.14086294;stroke-linejoin:round;stroke-miterlimit:4;stroke-dasharray:none;stroke-opacity:1" id="rect4166" width="995.302" height="557.947" x="-160.838" y="59.012"/></clipPath><clipPath id="clipPath4168" clipPathUnits="userSpaceOnUse"><rect style="opacity:.744;fill:#000;fill-opacity:1;stroke:#000;stroke-width:2.14086294;stroke-linejoin:round;stroke-miterlimit:4;stroke-dasharray:none;stroke-opacity:1" id="rect4170" width="995.302" height="557.947" x="-160.838" y="59.012"/></clipPath><clipPath id="clipPath4172" clipPathUnits="userSpaceOnUse"><rect style="opacity:.744;fill:#000;fill-opacity:1;stroke:#000;stroke-width:2.14086294;stroke-linejoin:round;stroke-miterlimit:4;stroke-dasharray:none;stroke-opacity:1" id="rect4174" width="995.302" height="557.947" x="-160.838" y="59.012"/></clipPath><clipPath id="clip_white"><path id="path4629" d="M 0,0 l -11,-5.5 v 11 L 0,0 l .2,-11 h 10 z"/></clipPath><clipPath id="clip_color"><path id="path4632" d="M 0,0 l -11,-11 v 22 L 0,0 v -11 h 11 z"/></clipPath><circle id="rb" r="145.663" fill="none" stroke="#013ba6" stroke-width="39.03"/><circle id="rw" r="145.663" fill="none" stroke="#fff" stroke-width="17.347"/><clipPath id="o"><path id="path4724" d="M0,-200V200H200V-200zM-200,-200V200H-100V-200z"/></clipPath><clipPath id="h"><path id="path4727" d="M-200,-200H200V50H-200z"/></clipPath><clipPath id="i1"><path id="path4730" d="M0,0 -200,-150V150z"/></clipPath><clipPath id="i2"><path id="path4733" d="M0,0 -200,-200V200z"/></clipPath><clipPath id="l1"><path id="path4736" d="M0,0 -50,-200H-200V150z"/></clipPath><clipPath id="l2"><path id="path4739" d="M0,0V-200H-200V200z"/></clipPath></defs><g id="g4795" transform="matrix(0.53333333,0,0,0.6,320,240)"><rect id="rect4741" width="1200" height="800" x="-600" y="-400" style="fill:#013ba6"/><g id="ro" transform="translate(145.66329,0)"><use id="use4744" width="100%" height="100%" x="0" y="0" clip-path="url(#o)" xlink:href="#rb"/><use id="use4746" width="100%" height="100%" x="0" y="0" xlink:href="#rw"/></g><use id="use4748" width="100%" height="100%" x="0" y="0" transform="matrix(0.5,-0.8660254,0.8660254,0.5,0,0)" xlink:href="#ro"/><use id="use4750" width="100%" height="100%" x="0" y="0" transform="matrix(0.5,0.8660254,-0.8660254,0.5,0,0)" xlink:href="#ro"/><use id="use4752" width="100%" height="100%" x="0" y="0" transform="matrix(-0.5,0.8660254,-0.8660254,-0.5,0,0)" xlink:href="#ro"/><use id="use4754" width="100%" height="100%" x="0" y="0" transform="scale(-1,-1)" xlink:href="#ro"/><use id="use4756" width="100%" height="100%" x="0" y="0" transform="matrix(-0.5,-0.8660254,0.8660254,-0.5,0,0)" xlink:href="#ro"/><g id="g4758"><use id="use4760" width="100%" height="100%" x="0" y="0" clip-path="url(#h)" xlink:href="#rb"/><use id="use4762" width="100%" height="100%" x="0" y="0" xlink:href="#rw"/></g><g id="g4764" transform="translate(145.66329,0)"><use id="use4766" width="100%" height="100%" x="0" y="0" clip-path="url(#i1)" xlink:href="#rb"/><use id="use4768" width="100%" height="100%" x="0" y="0" clip-path="url(#i2)" xlink:href="#rw"/></g><g id="rl" transform="matrix(-0.5,0.8660254,-0.8660254,-0.5,-72.831646,126.14811)"><use id="use4771" width="100%" height="100%" x="0" y="0" clip-path="url(#l1)" xlink:href="#rb"/><use id="use4773" width="100%" height="100%" x="0" y="0" clip-path="url(#l2)" xlink:href="#rw"/></g><use id="use4775" width="100%" height="100%" x="0" y="0" transform="scale(-1,1)" xlink:href="#rl"/></g></svg>