<svg xmlns="http://www.w3.org/2000/svg" xmlns:svg="http://www.w3.org/2000/svg" id="svg153" width="640" height="480" version="1.1"><metadata id="metadata3151"/><desc id="desc3066">The United States of America flag, produced by Daniel McRae</desc><defs id="defs155"><clipPath id="clipPath6304" clipPathUnits="userSpaceOnUse"><rect id="rect6306" width="130" height="130" x="0" y="0" style="fill:#000;fill-opacity:.67000002;stroke:none"/></clipPath><clipPath id="clipPath4293" clipPathUnits="userSpaceOnUse"><rect id="rect4295" width="682.667" height="512" x="0" y="0" style="fill:#000;fill-opacity:.67000002;stroke:none"/></clipPath><clipPath id="clipPath4164" clipPathUnits="userSpaceOnUse"><rect style="opacity:.744;fill:#000;fill-opacity:1;stroke:#000;stroke-width:2.14086294;stroke-linejoin:round;stroke-miterlimit:4;stroke-dasharray:none;stroke-opacity:1" id="rect4166" width="995.302" height="557.947" x="-160.838" y="59.012"/></clipPath><clipPath id="clipPath4168" clipPathUnits="userSpaceOnUse"><rect style="opacity:.744;fill:#000;fill-opacity:1;stroke:#000;stroke-width:2.14086294;stroke-linejoin:round;stroke-miterlimit:4;stroke-dasharray:none;stroke-opacity:1" id="rect4170" width="995.302" height="557.947" x="-160.838" y="59.012"/></clipPath><clipPath id="clipPath4172" clipPathUnits="userSpaceOnUse"><rect style="opacity:.744;fill:#000;fill-opacity:1;stroke:#000;stroke-width:2.14086294;stroke-linejoin:round;stroke-miterlimit:4;stroke-dasharray:none;stroke-opacity:1" id="rect4174" width="995.302" height="557.947" x="-160.838" y="59.012"/></clipPath><clipPath id="clip_white"><path id="path4629" d="M 0,0 l -11,-5.5 v 11 L 0,0 l .2,-11 h 10 z"/></clipPath><clipPath id="clip_color"><path id="path4632" d="M 0,0 l -11,-11 v 22 L 0,0 v -11 h 11 z"/></clipPath></defs><g id="g4678" transform="matrix(7.1111111,0,0,8,320,200)"><rect id="rect4634" width="90" height="60" x="-45" y="-25" style="fill:#fff"/><g id="g4636" style="fill:none;stroke:#fff;stroke-width:2"><circle id="circle4638" cx="-11" cy="9" r="9" style="stroke-width:3"/><circle id="circle4640" cx="11" cy="9" r="9" style="stroke-width:3"/><circle id="circle4642" cx="-11" cy="9" r="9" style="stroke:#f4c300"/><circle id="circle4644" cx="11" cy="9" r="9" style="stroke:#009f3d"/><circle id="circle4646" cx="-22" cy="0" r="9" style="stroke-width:3"/><circle id="circle4648" cx="0" cy="0" r="9" style="stroke-width:3"/><circle id="circle4650" cx="22" cy="0" r="9" style="stroke-width:3"/><circle id="circle4652" cx="-22" cy="0" r="9" style="stroke:#0085c7"/><circle id="circle4654" cx="0" cy="0" r="9" style="stroke:#000"/><circle id="circle4656" cx="22" cy="0" r="9" style="stroke:#df0024"/><g id="g4658" transform="translate(-11,9)"><circle id="circle4660" cx="0" cy="0" r="9" clip-path="url(#clip_white)" style="stroke-width:3"/><circle id="circle4662" cx="0" cy="0" r="9" clip-path="url(#clip_color)" style="stroke:#f4c300"/></g><g id="g4664" transform="translate(11,9)"><circle id="circle4666" cx="0" cy="0" r="9" clip-path="url(#clip_white)" style="stroke-width:3"/><circle id="circle4668" cx="0" cy="0" r="9" clip-path="url(#clip_color)" style="stroke:#009f3d"/></g></g></g></svg>