<svg xmlns="http://www.w3.org/2000/svg" xmlns:svg="http://www.w3.org/2000/svg" xmlns:xlink="http://www.w3.org/1999/xlink" id="svg548" width="640" height="480" x="0" y="0" version="1"><metadata id="metadata3758"/><defs id="defs549"><marker id="ArrowEnd" markerHeight="3" markerUnits="strokeWidth" markerWidth="4" orient="auto" refX="0" refY="5" viewBox="0 0 10 10"><path style="font-size:12" id="path551" d="M 0 0 L 10 5 L 0 10 L 0 0 z"/></marker><marker id="ArrowStart" markerHeight="3" markerUnits="strokeWidth" markerWidth="4" orient="auto" refX="10" refY="5" viewBox="0 0 10 10"><path style="font-size:12" id="path553" d="M 10 0 L 0 5 L 10 10 L 10 0 z"/></marker></defs><g id="g5561" transform="scale(0.85333333,0.96)"><rect id="rect4838" width="750" height="500" x="0" y="0" style="fill:#c60b1e"/><rect id="rect4840" width="750" height="250" x="0" y="125" style="fill:#ffc400"/><g id="coa" style="stroke:#000;stroke-width:.38999999"><g id="supporters"><g id="crown_left" style="stroke-width:.25999999"><path id="path4845" d="m 167.99,222.24 c 0,0 -0.51,0 -0.79,-0.16 -0.28,-0.16 -1.13,-0.96 -1.13,-0.96 l -0.68,-0.49 -0.62,-0.85 c 0,0 -0.73,-1.18 -0.4,-2.09 0.34,-0.91 0.91,-1.23 1.42,-1.5 0.51,-0.26 1.58,-0.59 1.58,-0.59 0,0 0.85,-0.37 1.13,-0.42 0.28,-0.06 1.3,-0.32 1.3,-0.32 0,0 0.28,-0.16 0.56,-0.27 0.29,-0.11 0.68,-0.11 0.91,-0.16 0.22,-0.06 0.79,-0.24 1.13,-0.26 0.52,-0.02 1.36,0.1 1.64,0.1 0.28,0 1.24,0.05 1.64,0.05 0.39,0 1.8,-0.11 2.2,-0.11 0.39,0 0.68,-0.05 1.13,0 0.45,0.06 1.24,0.32 1.47,0.43 0.23,0.11 1.58,0.59 2.09,0.75 0.51,0.16 1.75,0.37 2.32,0.64 0.56,0.27 0.91,0.72 1.19,1.1 0.28,0.37 0.34,0.78 0.45,1.05 0.11,0.26 0.11,0.84 0,1.11 -0.11,0.26 -0.51,0.81 -0.51,0.81 l -0.62,1.02 -0.79,0.64 c 0,0 -0.57,0.54 -1.02,0.48 -0.45,-0.04 -5.03,-0.86 -7.97,-0.86 -2.94,0 -7.64,0.86 -7.64,0.86 l 0.01,0 z" style="fill:#ad1519;stroke-linejoin:round"/><g id="g4847" style="fill:#c8b100"><ellipse id="ellipse4849" cx="175.66" cy="215.68" rx="1.38" ry="2.5"/><ellipse id="ellipse4851" cx="175.68" cy="215.68" rx=".64" ry="2.3"/><ellipse id="ellipse4853" cx="175.68" cy="213.04" rx=".93" ry=".87" style="stroke:none"/><path id="path4855" d="m 176.96,212.74 0,0.58 -2.53,0 0,-0.58 0.94,0 0,-1.32 -0.62,0 0,-0.57 0.62,0 0,-0.57 0.6,0 0,0.57 0.62,0 0,0.57 -0.62,0 0,1.32 0.99,0" style="stroke-width:.30000001"/><path id="path4857" d="m 175.94,212.2 a 0.93,0.87 0 1 1 -0.5,0" style="fill:none"/><path id="path4859" d="m 175.68,222.08 -4.81,0 -0.11,-1.18 -0.23,-1.23 -0.23,-1.53 c -1.33,-1.75 -2.55,-2.9 -2.96,-2.65 0.1,-0.32 0.22,-0.56 0.47,-0.71 1.18,-0.7 3.61,0.98 5.44,3.74 0.16,0.25 0.32,0.5 0.46,0.75 l 3.97,0 c 0.14,-0.25 0.3,-0.5 0.46,-0.75 1.82,-2.76 4.26,-4.44 5.43,-3.74 0.26,0.15 0.37,0.39 0.47,0.71 -0.41,-0.24 -1.62,0.9 -2.96,2.65 l -0.23,1.53 -0.23,1.23 -0.1,1.18 -4.84,0 z"/><path id="path4861" d="m 167.55,215.44 c 0.91,-0.53 3.02,1.14 4.73,3.74 m 11.55,-3.74 c -0.91,-0.53 -3.01,1.14 -4.73,3.74" style="fill:none"/></g><g id="crown_pt1" style="fill:#c8b100"><path id="path4864" d="m 168.58,224.25 c -0.2,-0.57 -0.58,-1.08 -0.58,-1.08 1.95,-0.57 4.66,-0.93 7.67,-0.94 3.01,0.01 5.75,0.37 7.69,0.94 0,0 -0.22,0.38 -0.52,0.91 -0.17,0.3 -0.39,0.81 -0.38,0.81 -1.75,-0.54 -4.02,-0.81 -6.8,-0.82 -2.79,0.01 -5.46,0.35 -6.86,0.86 0.02,0 -0.1,-0.32 -0.23,-0.68 l 0.01,0"/><path id="path4866" d="m 175.67,226.73 c 2.43,-0.01 5.11,-0.38 6.1,-0.63 0.66,-0.2 1.05,-0.49 0.98,-0.84 -0.04,-0.16 -0.18,-0.3 -0.37,-0.38 -1.46,-0.47 -4.07,-0.8 -6.71,-0.8 -2.63,0 -5.27,0.33 -6.72,0.8 -0.19,0.08 -0.33,0.22 -0.37,0.38 -0.07,0.35 0.32,0.64 0.98,0.84 0.99,0.25 3.68,0.62 6.11,0.63 z"/><path id="path4868" d="m 183.48,222.08 -0.59,-0.53 c 0,0 -0.57,0.34 -1.28,0.24 -0.7,-0.11 -0.93,-0.97 -0.93,-0.97 0,0 -0.79,0.67 -1.44,0.62 -0.65,-0.06 -1.07,-0.62 -1.07,-0.62 0,0 -0.71,0.51 -1.33,0.46 -0.62,-0.06 -1.21,-0.83 -1.21,-0.83 0,0 -0.63,0.8 -1.25,0.86 -0.62,0.05 -1.13,-0.54 -1.13,-0.54 0,0 -0.28,0.59 -1.07,0.72 -0.79,0.13 -1.47,-0.62 -1.47,-0.62 0,0 -0.45,0.73 -0.99,0.92 -0.54,0.18 -1.24,-0.27 -1.24,-0.27 0,0 -0.12,0.27 -0.2,0.43 -0.08,0.16 -0.31,0.19 -0.31,0.19 l 0.18,0.47 c 1.93,-0.56 4.56,-0.91 7.53,-0.91 2.97,0 5.67,0.35 7.61,0.92 l 0.2,-0.54 -0.01,0 z"/><path id="path4870" d="m 175.69,219.49 0.28,0.05 c -0.05,0.12 -0.06,0.24 -0.06,0.38 0,0.58 0.5,1.05 1.12,1.05 0.49,0 0.91,-0.31 1.06,-0.73 0.01,0.01 0.11,-0.38 0.15,-0.38 0.03,0 0.03,0.41 0.05,0.41 0.07,0.53 0.55,0.89 1.1,0.89 0.62,0 1.11,-0.47 1.11,-1.06 0,-0.04 0,-0.08 -0.01,-0.12 l 0.35,-0.35 0.19,0.44 c -0.07,0.14 -0.1,0.29 -0.1,0.46 0,0.56 0.47,1.01 1.06,1.01 0.37,0 0.69,-0.18 0.88,-0.45 l 0.23,-0.29 0,0.36 c 0,0.34 0.14,0.66 0.49,0.71 0,0 0.38,0.03 0.91,-0.38 0.52,-0.41 0.8,-0.75 0.8,-0.75 l 0.03,0.42 c 0,0 -0.51,0.84 -0.97,1.1 -0.25,0.15 -0.64,0.31 -0.95,0.25 -0.32,-0.05 -0.55,-0.31 -0.67,-0.61 -0.23,0.14 -0.51,0.22 -0.8,0.22 -0.63,0 -1.2,-0.35 -1.42,-0.86 -0.29,0.31 -0.69,0.5 -1.16,0.5 -0.51,0 -0.97,-0.23 -1.26,-0.58 -0.28,0.27 -0.67,0.43 -1.09,0.43 -0.55,0 -1.05,-0.28 -1.33,-0.69 -0.29,0.41 -0.78,0.69 -1.34,0.69 -0.42,0 -0.81,-0.16 -1.09,-0.43 -0.29,0.35 -0.75,0.58 -1.25,0.58 -0.48,0 -0.88,-0.19 -1.17,-0.5 -0.22,0.51 -0.79,0.86 -1.42,0.86 -0.29,0 -0.56,-0.08 -0.79,-0.22 -0.12,0.3 -0.35,0.56 -0.68,0.61 -0.3,0.06 -0.69,-0.1 -0.94,-0.25 -0.47,-0.26 -1.02,-1.1 -1.02,-1.1 l 0.07,-0.42 c 0,0 0.29,0.34 0.81,0.75 0.52,0.41 0.91,0.38 0.91,0.38 0.34,-0.05 0.49,-0.37 0.49,-0.71 l 0,-0.36 0.22,0.29 c 0.19,0.27 0.51,0.45 0.88,0.45 0.59,0 1.06,-0.45 1.06,-1.01 0,-0.17 -0.02,-0.32 -0.1,-0.46 l 0.19,-0.44 0.35,0.35 c -0.01,0.04 -0.01,0.08 -0.01,0.12 0,0.59 0.49,1.06 1.11,1.06 0.55,0 1.03,-0.36 1.11,-0.89 0.01,0 0.01,-0.41 0.04,-0.41 0.05,0 0.14,0.39 0.16,0.38 0.14,0.42 0.56,0.73 1.06,0.73 0.61,0 1.11,-0.47 1.11,-1.05 0,-0.14 0,-0.26 -0.05,-0.38 l 0.29,-0.05 0.01,0 z"/><path id="path4872" d="m 175.67,222.23 c -3.01,0.01 -5.72,0.37 -7.67,0.94 -0.13,0.04 -0.29,-0.06 -0.33,-0.17 -0.04,-0.13 0.05,-0.28 0.18,-0.32 1.95,-0.6 4.73,-0.98 7.82,-0.98 3.09,0 5.88,0.38 7.83,0.98 0.13,0.04 0.22,0.19 0.18,0.32 -0.04,0.11 -0.2,0.21 -0.33,0.17 -1.95,-0.57 -4.67,-0.93 -7.68,-0.94 z" style="stroke-linejoin:round"/><path id="path4874" d="m 165.43,221 c -0.01,0.01 -0.38,-0.48 -0.65,-0.73 -0.2,-0.18 -0.68,-0.33 -0.68,-0.33 0,-0.08 0.28,-0.28 0.58,-0.28 0.18,0 0.35,0.07 0.45,0.2 l 0.04,-0.2 c 0,0 0.24,0.05 0.35,0.32 0.12,0.29 0.05,0.72 0.05,0.72 0,0 -0.05,0.2 -0.14,0.3 z"/><path id="path4876" d="m 167.32,220.22 -0.11,0.66 -1.4,0.15 -0.21,-0.12 0.04,-0.23 1.06,-0.87 0.62,0.41"/><path id="path4878" d="m 165.45,220.75 c 0.12,-0.12 0.36,-0.09 0.53,0.06 0.18,0.15 0.24,0.38 0.12,0.5 -0.12,0.13 -0.36,0.1 -0.53,-0.06 -0.18,-0.15 -0.24,-0.38 -0.12,-0.5 z"/><path id="path4880" d="m 168.02,220.88 c -0.06,-0.18 0,-0.37 0.13,-0.42 0.14,-0.03 0.3,0.09 0.37,0.27 0.06,0.19 0,0.38 -0.14,0.42 -0.13,0.04 -0.29,-0.08 -0.36,-0.27 z"/><path id="path4882" d="m 168.67,220.04 0.51,0.48 1.22,-0.66 0.09,-0.21 -0.17,-0.17 -1.4,-0.12 -0.25,0.68"/><path id="path4884" d="m 170.08,217.76 -0.67,0.64 0.86,1.14 0.23,0.09 0.17,-0.18 0.3,-1.37 -0.89,-0.32"/><path id="path4886" d="m 172.36,219.3 -0.26,0.63 -1.4,-0.13 -0.18,-0.16 0.1,-0.22 1.22,-0.64 0.52,0.52"/><ellipse id="ellipse4888" cx="170.51" cy="219.65" rx=".49" ry=".47"/><path id="path4890" d="m 172.87,219.95 c -0.03,-0.2 0.07,-0.37 0.21,-0.39 0.14,-0.02 0.28,0.13 0.3,0.33 0.03,0.19 -0.07,0.37 -0.21,0.38 -0.14,0.02 -0.28,-0.13 -0.3,-0.32 z"/><path id="path4892" d="m 173.78,219.24 0.4,0.57 1.34,-0.42 0.14,-0.18 -0.15,-0.2 -1.33,-0.39 -0.4,0.62"/><path id="path4894" d="m 175.66,217.15 -0.86,0.52 0.64,1.38 0.22,0.14 0.22,-0.14 0.64,-1.38 -0.86,-0.52"/><path id="path4896" d="m 177.55,219.24 -0.39,0.57 -1.34,-0.42 -0.14,-0.18 0.14,-0.2 1.34,-0.39 0.39,0.62"/><ellipse id="ellipse4898" cx="175.67" cy="219.21" rx=".49" ry=".47"/><path id="path4900" d="m 178.5,219.95 c 0.02,-0.2 -0.08,-0.37 -0.22,-0.39 -0.14,-0.02 -0.28,0.13 -0.3,0.33 -0.02,0.19 0.07,0.37 0.21,0.38 0.14,0.02 0.28,-0.13 0.31,-0.32 z"/><path id="path4902" d="m 178.99,219.3 0.26,0.63 1.4,-0.13 0.18,-0.16 -0.1,-0.22 -1.22,-0.64 -0.52,0.52"/><path id="path4904" d="m 181.27,217.76 0.67,0.64 -0.86,1.14 -0.23,0.09 -0.17,-0.18 -0.3,-1.37 0.89,-0.32"/><path id="path4906" d="m 182.68,220.04 -0.51,0.48 -1.22,-0.66 -0.1,-0.21 0.19,-0.17 1.4,-0.12 0.24,0.68"/><ellipse id="ellipse4908" cx="180.85" cy="219.65" rx=".49" ry=".47"/><path id="path4910" d="m 183.34,220.88 c 0.06,-0.18 0,-0.37 -0.13,-0.42 -0.14,-0.03 -0.3,0.09 -0.37,0.27 -0.06,0.19 0,0.38 0.14,0.42 0.13,0.04 0.29,-0.08 0.36,-0.27 z"/><path id="path4912" d="m 185.73,221 c 0.01,0.01 0.38,-0.48 0.66,-0.73 0.19,-0.18 0.67,-0.33 0.67,-0.33 0,-0.08 -0.28,-0.28 -0.58,-0.28 -0.18,0 -0.35,0.07 -0.45,0.2 l -0.04,-0.2 c 0,0 -0.24,0.05 -0.36,0.32 -0.11,0.29 -0.03,0.72 -0.03,0.72 0,0 0.04,0.2 0.13,0.3 z"/><path id="path4914" d="m 183.84,220.22 0.11,0.66 1.4,0.15 0.21,-0.12 -0.05,-0.23 -1.05,-0.87 -0.62,0.41"/><path id="path4916" d="m 185.74,220.75 c -0.11,-0.12 -0.35,-0.09 -0.53,0.06 -0.18,0.15 -0.24,0.38 -0.12,0.5 0.12,0.13 0.36,0.1 0.54,-0.06 0.18,-0.15 0.23,-0.38 0.11,-0.5 z"/></g><g id="crown_pt2" style="fill:none"><path id="path4919" d="m 168.05,224.3 0.31,-0.5 0.65,0.13 -0.38,0.56 -0.58,-0.19" style="fill:#ad1519"/><path id="path4921" d="m 170.85,223.81 -0.69,0.11 c -0.18,0.02 -0.35,-0.09 -0.38,-0.26 -0.02,-0.17 0.1,-0.32 0.27,-0.35 l 0.7,-0.1 0.71,-0.11 c 0.18,-0.02 0.34,0.09 0.37,0.25 0.02,0.17 -0.1,0.33 -0.27,0.35 l -0.71,0.11" style="fill:#058e6e"/><ellipse id="ellipse4923" cx="173.19" cy="223.3" rx=".44" ry=".41" style="fill:#fff"/><path id="path4925" d="m 175.7,223.48 -0.96,0 c -0.18,0 -0.33,-0.14 -0.33,-0.31 0,-0.17 0.14,-0.31 0.32,-0.31 l 1.96,0 c 0.19,0 0.33,0.14 0.33,0.31 0,0.17 -0.15,0.31 -0.33,0.31 l -0.99,0" style="fill:#ad1519"/><ellipse id="ellipse4927" cx="178.16" cy="223.3" rx=".44" ry=".41" style="fill:#fff"/><path id="path4929" d="m 180.5,223.81 0.69,0.11 c 0.18,0.02 0.35,-0.09 0.38,-0.26 0.02,-0.17 -0.09,-0.32 -0.27,-0.35 l -0.7,-0.1 -0.71,-0.11 c -0.18,-0.02 -0.35,0.09 -0.37,0.25 -0.03,0.17 0.09,0.33 0.27,0.35 l 0.71,0.11" style="fill:#058e6e"/><path id="path4931" d="m 183.24,224.33 -0.25,-0.53 -0.67,0.06 0.32,0.59 0.6,-0.12" style="fill:#ad1519"/><path id="path4933" d="m 175.66,226.16 c -2.43,0 -4.63,-0.22 -6.3,-0.65 1.67,-0.43 3.87,-0.69 6.3,-0.7 2.44,0 4.65,0.27 6.33,0.7 -1.68,0.43 -3.89,0.65 -6.33,0.65 z" style="fill:#ad1519;stroke-linejoin:round"/><path id="path4935" d="m 176.8,226.08 0,-1.16 m -0.58,1.2 0.01,-1.23 m -0.43,1.25 0,-1.26" style="stroke-width:.01"/><path id="path4937" d="m 175.44,226.15 0,-1.27" style="stroke-width:.02"/><path id="path4939" d="m 175.09,226.15 0,-1.27" style="stroke-width:.03"/><path id="path4941" d="m 174.77,226.15 0,-1.27" style="stroke-width:.04"/><path id="path4943" d="m 174.44,226.15 0,-1.27" style="stroke-width:.04"/><path id="path4945" d="m 174.16,226.15 0,-1.27" style="stroke-width:.05"/><path id="path4947" d="m 173.61,226.08 -0.01,-1.15 m 0.27,1.17 0,-1.21" style="stroke-width:.06"/><path id="path4949" d="m 173.1,226.03 0,-1.06 m 0.26,1.09 -0.01,-1.13" style="stroke-width:.07"/><path id="path4951" d="m 172.42,225.97 0,-0.93 m 0.23,0.94 0,-0.98 m 0.23,1.02 0,-1.02" style="stroke-width:.08"/><path id="path4953" d="m 172.19,225.96 0,-0.9" style="stroke-width:.09"/><path id="path4955" d="m 171.97,225.92 0,-0.85" style="stroke-width:.1"/><path id="path4957" d="m 171.73,225.89 0,-0.78" style="stroke-width:.11"/><path id="path4959" d="m 171.24,225.82 -0.01,-0.62 m 0.26,0.66 0,-0.7" style="stroke-width:.12"/><path id="path4961" d="m 170.99,225.77 0,-0.55" style="stroke-width:.12"/><path id="path4963" d="m 170.76,225.73 0,-0.46" style="stroke-width:.13"/><path id="path4965" d="m 170.51,225.67 0,-0.36" style="stroke-width:.14"/><path id="path4967" d="m 170.26,225.64 0,-0.27" style="stroke-width:.15000001"/><path id="path4969" d="m 169.99,225.58 0,-0.13" style="stroke-width:.18000001"/></g></g><g id="pillar_left"><g id="g4972" style="fill:#005bbf"><path id="path4974" d="m 191.28,330.68 c -1.54,0 -2.91,-0.33 -3.93,-0.87 -1,-0.51 -2.36,-0.82 -3.86,-0.82 -1.51,0 -2.9,0.32 -3.91,0.83 -1.01,0.53 -2.4,0.86 -3.92,0.86 -1.54,0 -2.92,-0.36 -3.93,-0.9 -1,-0.49 -2.33,-0.79 -3.79,-0.79 -1.52,0 -2.86,0.29 -3.86,0.81 -1.02,0.54 -2.42,0.88 -3.95,0.88 l 0,2.41 c 1.53,0 2.93,-0.35 3.95,-0.88 1,-0.52 2.34,-0.82 3.86,-0.82 1.45,0 2.79,0.31 3.79,0.8 1.01,0.53 2.39,0.9 3.93,0.9 1.52,0 2.91,-0.33 3.92,-0.86 1.01,-0.52 2.4,-0.84 3.91,-0.84 1.5,0 2.86,0.32 3.86,0.83 1.02,0.54 2.37,0.87 3.91,0.87 l 0.02,-2.41 z"/><path id="path4976" d="m 191.28,333.09 c -1.54,0 -2.91,-0.33 -3.93,-0.87 -1,-0.51 -2.36,-0.83 -3.86,-0.83 -1.51,0 -2.9,0.32 -3.91,0.84 -1.01,0.53 -2.4,0.86 -3.92,0.86 -1.54,0 -2.92,-0.37 -3.93,-0.9 -1,-0.49 -2.33,-0.8 -3.79,-0.8 -1.52,0 -2.86,0.3 -3.86,0.82 -1.02,0.53 -2.42,0.88 -3.95,0.88 l 0,2.41 c 1.53,0 2.93,-0.35 3.95,-0.88 1,-0.52 2.34,-0.82 3.86,-0.82 1.45,0 2.79,0.31 3.79,0.8 1.01,0.54 2.39,0.9 3.93,0.9 1.52,0 2.91,-0.34 3.92,-0.86 1.01,-0.52 2.4,-0.84 3.91,-0.84 1.5,0 2.86,0.32 3.86,0.84 1.02,0.53 2.37,0.86 3.91,0.86 l 0.02,-2.41" style="fill:#ccc"/><path id="path4978" d="m 191.28,335.5 c -1.54,0 -2.91,-0.33 -3.93,-0.86 -1,-0.52 -2.36,-0.84 -3.86,-0.84 -1.51,0 -2.9,0.32 -3.91,0.84 -1.01,0.52 -2.4,0.86 -3.92,0.86 -1.54,0 -2.92,-0.36 -3.93,-0.9 -1,-0.49 -2.33,-0.8 -3.79,-0.8 -1.52,0 -2.86,0.3 -3.86,0.82 -1.02,0.53 -2.42,0.88 -3.95,0.88 l 0,2.4 c 1.53,0 2.93,-0.34 3.95,-0.88 1,-0.51 2.34,-0.8 3.86,-0.8 1.45,0 2.79,0.3 3.79,0.79 1.01,0.54 2.39,0.89 3.93,0.89 1.52,0 2.91,-0.32 3.92,-0.85 1.01,-0.52 2.4,-0.83 3.91,-0.83 1.5,0 2.86,0.31 3.86,0.82 1.02,0.55 2.37,0.86 3.91,0.86 l 0.02,-2.4"/><path id="path4980" d="m 191.26,340.32 c -1.54,0 -2.89,-0.33 -3.91,-0.87 -1,-0.51 -2.36,-0.82 -3.86,-0.82 -1.51,0 -2.9,0.31 -3.91,0.83 -1.01,0.52 -2.4,0.86 -3.92,0.86 -1.54,0 -2.92,-0.37 -3.93,-0.9 -1,-0.5 -2.33,-0.79 -3.79,-0.79 -1.52,0 -2.86,0.29 -3.86,0.81 -1.02,0.53 -2.42,0.88 -3.95,0.88 l 0,-2.4 c 1.53,0 2.93,-0.36 3.95,-0.9 1,-0.51 2.34,-0.8 3.86,-0.8 1.45,0 2.79,0.3 3.79,0.79 1.01,0.54 2.39,0.89 3.93,0.89 1.52,0 2.91,-0.32 3.92,-0.85 1.01,-0.52 2.4,-0.83 3.91,-0.83 1.5,0 2.86,0.31 3.86,0.82 1.02,0.55 2.39,0.86 3.93,0.86 l -0.02,2.42" style="fill:#ccc"/><path id="path4982" d="m 191.26,342.73 c -1.54,0 -2.89,-0.33 -3.91,-0.86 -1,-0.52 -2.36,-0.84 -3.86,-0.84 -1.51,0 -2.9,0.32 -3.91,0.84 -1.01,0.52 -2.4,0.86 -3.92,0.86 -1.54,0 -2.92,-0.37 -3.93,-0.9 -1,-0.5 -2.33,-0.8 -3.79,-0.8 -1.52,0 -2.86,0.3 -3.86,0.82 -1.02,0.53 -2.42,0.88 -3.95,0.88 l 0,-2.39 c 1.53,0 2.93,-0.37 3.95,-0.9 1,-0.52 2.34,-0.81 3.86,-0.81 1.45,0 2.79,0.3 3.79,0.79 1.01,0.53 2.39,0.9 3.93,0.9 1.52,0 2.91,-0.34 3.92,-0.86 1.01,-0.52 2.4,-0.83 3.91,-0.83 1.5,0 2.86,0.31 3.86,0.82 1.02,0.54 2.38,0.87 3.93,0.87 l -0.02,2.41 z"/></g><g id="g4984" style="fill:#c8b100"><path id="path4986" d="m 166.92,320.78 c 0.05,0.21 0.13,0.4 0.13,0.62 0,1.46 -1.27,2.63 -2.81,2.63 l 22.94,0 c -1.55,0 -2.81,-1.17 -2.81,-2.63 0,-0.21 0.04,-0.41 0.09,-0.62 -0.13,0.05 -0.29,0.06 -0.44,0.06 l -16.69,0 c -0.13,0 -0.29,-0.02 -0.41,-0.06 z" style="stroke-linejoin:round"/><path id="path4988" d="m 167.33,319.27 16.69,0 c 0.57,0 1.02,0.35 1.02,0.78 0,0.43 -0.45,0.79 -1.02,0.79 l -16.69,0 c -0.56,0 -1.02,-0.36 -1.02,-0.79 0,-0.43 0.46,-0.78 1.02,-0.78 z"/><path id="path4990" d="m 164.27,329.86 22.87,0 0,-5.83 -22.87,0 0,5.83 z"/></g><path id="path4992" d="m 167.55,318.32 16.25,0 0,-79.63 -16.25,0 0,79.63 z" style="fill:#ccc"/><path id="path4994" d="m 179.13,238.8 0,79.46 m 1.83,-79.46 0,79.46" style="fill:none"/><g id="g4996" style="fill:#c8b100"><path id="path4998" d="m 164.58,232.37 22.29,0 0,-5.84 -22.29,0 0,5.84 z"/><path id="path5000" d="m 166.92,236.26 c 0.14,-0.06 0.24,-0.07 0.41,-0.07 l 16.69,0 c 0.17,0 0.32,0.03 0.46,0.08 -0.58,-0.19 -0.99,-0.71 -0.99,-1.32 0,-0.61 0.45,-1.14 1.03,-1.33 -0.14,0.04 -0.33,0.08 -0.49,0.08 l -16.7,0 c -0.17,0 -0.33,-0.01 -0.47,-0.06 l 0.09,0.02 c 0.6,0.18 0.94,0.71 0.94,1.29 0,0.56 -0.38,1.13 -0.97,1.31 z" style="stroke-linejoin:round"/><path id="path5002" d="m 167.33,236.19 16.69,0 c 0.57,0 1.02,0.35 1.02,0.78 0,0.44 -0.45,0.79 -1.02,0.79 l -16.69,0 c -0.56,0 -1.02,-0.35 -1.02,-0.79 0,-0.43 0.46,-0.78 1.02,-0.78 z"/><path id="path5004" d="m 167.33,232.37 16.7,0 c 0.57,0 1.03,0.3 1.03,0.66 0,0.37 -0.46,0.67 -1.03,0.67 l -16.7,0 c -0.56,0 -1.02,-0.3 -1.02,-0.67 0,-0.36 0.46,-0.66 1.02,-0.66 z"/></g></g><g id="ribbon_left" style="fill:#ad1519"><path id="path5007" d="m 162.48,298.62 c -2.26,1.3 -3.8,2.64 -3.55,3.31 0.12,0.61 0.84,1.07 1.87,1.75 1.62,1.13 2.6,3.14 1.83,4.07 1.34,-1.08 2.19,-2.69 2.19,-4.49 0,-1.87 -0.9,-3.56 -2.34,-4.64 z"/><path id="path5009" d="m 200.4,268.47 c -3.54,-1.46 -9.57,-2.55 -16.49,-2.78 -2.39,0.02 -5.04,0.25 -7.79,0.7 -9.72,1.63 -17.13,5.51 -16.54,8.67 0.01,0.06 0.04,0.2 0.05,0.26 0,0 -3.64,-8.21 -3.7,-8.52 -0.65,-3.51 7.56,-7.82 18.35,-9.62 3.39,-0.57 6.69,-0.79 9.56,-0.76 6.9,0 12.9,0.89 16.52,2.23 l 0.04,9.82" style="stroke-linejoin:round"/><path id="path5011" d="m 167.52,278.47 c -4.51,-0.32 -7.58,-1.53 -7.94,-3.41 -0.28,-1.5 1.25,-3.17 3.97,-4.68 1.21,0.14 2.58,0.3 4,0.3 l -0.03,7.79"/><path id="path5013" d="m 183.83,272.38 c 2.82,0.43 4.93,1.13 5.98,1.99 l 0.1,0.17 c 0.5,1.03 -1.97,3.22 -6.11,5.67 l 0.03,-7.83"/><path id="path5015" d="m 157.42,293.83 c -0.43,-1.28 3.97,-3.86 10.18,-6.14 2.84,-1.01 5.18,-2.07 8.09,-3.35 8.63,-3.82 15,-8.2 14.22,-9.79 l -0.09,-0.17 c 0.46,0.38 1.18,8.24 1.18,8.24 0.78,1.46 -5.05,5.78 -13,9.58 -2.54,1.22 -7.91,3.2 -10.44,4.09 -4.54,1.57 -9.04,4.54 -8.63,5.64 l -1.51,-8.09 0,-0.01 z" style="stroke-linejoin:round"/></g><g id="crown_right" style="stroke-width:.25999999"><path id="path5018" d="m 324.85,220.42 c 0,0 -0.74,0.78 -1.28,0.89 -0.53,0.1 -1.21,-0.49 -1.21,-0.49 0,0 -0.48,0.51 -1.08,0.64 -0.59,0.14 -1.41,-0.66 -1.41,-0.66 0,0 -0.57,0.8 -1.07,0.99 -0.51,0.18 -1.13,-0.24 -1.13,-0.24 0,0 -0.23,0.39 -0.65,0.61 -0.18,0.09 -0.48,-0.05 -0.48,-0.05 l -0.6,-0.38 -0.68,-0.72 -0.62,-0.24 c 0,0 -0.28,-0.91 -0.31,-1.07 -0.02,-0.16 -0.08,-0.57 -0.08,-0.57 -0.13,-0.65 0.87,-1.4 2.3,-1.72 0.82,-0.19 1.54,-0.18 2.06,-0.02 0.57,-0.48 1.78,-0.82 3.2,-0.82 1.29,0 2.42,0.27 3.04,0.7 0.61,-0.43 1.74,-0.7 3.03,-0.7 1.42,0 2.62,0.34 3.19,0.82 0.53,-0.16 1.24,-0.17 2.07,0.02 1.42,0.32 2.43,1.07 2.3,1.72 0,0 -0.06,0.41 -0.08,0.57 -0.03,0.16 -0.32,1.07 -0.32,1.07 l -0.62,0.24 -0.68,0.72 -0.58,0.38 c 0,0 -0.3,0.14 -0.48,0.05 -0.43,-0.21 -0.66,-0.61 -0.66,-0.61 0,0 -0.62,0.42 -1.13,0.24 -0.51,-0.19 -1.07,-0.99 -1.07,-0.99 0,0 -0.82,0.8 -1.42,0.66 -0.59,-0.13 -1.07,-0.64 -1.07,-0.64 0,0 -0.68,0.59 -1.21,0.49 -0.54,-0.11 -1.27,-0.89 -1.27,-0.89 z" style="fill:#ad1519;stroke-width:.27000001"/><g id="g5020" style="fill:#c8b100"><ellipse id="ellipse5022" cx="324.82" cy="216.2" rx="1.38" ry="1.96"/><ellipse id="ellipse5024" cx="324.85" cy="216.2" rx=".63" ry="1.81"/><ellipse id="ellipse5026" cx="324.84" cy="213.95" rx=".93" ry=".88" style="stroke:none"/><path id="path5028" d="m 326.13,213.64 0,0.58 -2.53,0 0,-0.58 0.94,0 0,-1.3 -0.62,0 0,-0.58 0.62,0 0,-0.58 0.61,0 0,0.58 0.61,0 0,0.58 -0.61,0 0,1.3 0.98,0" style="stroke-width:.30000001"/><path id="path5030" d="m 325.11,213.12 a 0.93,0.88 0 1 1 -0.51,-0.01" style="fill:none"/></g><g id="g5032" style="fill:none;stroke-width:.20999999"><path id="path5034" d="m 314.41,219.99 c -0.13,-0.33 -0.22,-0.7 -0.22,-1.08 0,-1.59 1.26,-2.88 2.83,-2.88 0.5,0 0.96,0.13 1.37,0.37" style="stroke-width:.25999999;stroke-linecap:round"/><path id="path5036" d="m 319.48,217.93 c -0.15,-0.26 -0.29,-0.54 -0.29,-0.84 0,-1.15 1.19,-2.08 2.64,-2.08 0.62,0 1.2,0.17 1.65,0.45" style="stroke-width:.25999999"/><path id="path5038" d="m 330.17,217.96 c 0.15,-0.26 0.25,-0.57 0.25,-0.87 0,-1.15 -1.18,-2.08 -2.64,-2.08 -0.62,0 -1.19,0.17 -1.64,0.45" style="stroke-width:.25999999"/><path id="path5040" d="m 335.21,219.99 c 0.13,-0.33 0.21,-0.7 0.21,-1.08 0,-1.59 -1.26,-2.88 -2.82,-2.88 -0.5,0 -0.97,0.13 -1.38,0.37" style="stroke-width:.25999999;stroke-linecap:round"/><ellipse id="ellipse5042" cx="313.57" cy="218.68" rx=".45" ry=".43"/><ellipse id="ellipse5044" cx="313.74" cy="217.1" rx=".45" ry=".43"/><ellipse id="ellipse5046" cx="314.76" cy="215.9" rx=".45" ry=".43"/><ellipse id="ellipse5048" cx="316.11" cy="215.25" rx=".45" ry=".43"/><ellipse id="ellipse5050" cx="317.55" cy="215.31" rx=".45" ry=".43"/><ellipse id="ellipse5052" cx="318.43" cy="217.08" rx=".45" ry=".43" style="fill:#fff"/><ellipse id="ellipse5054" cx="318.68" cy="215.58" rx=".45" ry=".43"/><ellipse id="ellipse5056" cx="319.81" cy="214.64" rx=".45" ry=".43"/><ellipse id="ellipse5058" cx="321.23" cy="214.19" rx=".45" ry=".43"/><ellipse id="ellipse5060" cx="322.67" cy="214.24" rx=".45" ry=".43"/><ellipse id="ellipse5062" cx="326.94" cy="214.24" rx=".45" ry=".43"/><ellipse id="ellipse5064" cx="328.39" cy="214.19" rx=".45" ry=".43"/><ellipse id="ellipse5066" cx="329.8" cy="214.64" rx=".45" ry=".43"/><ellipse id="ellipse5068" cx="330.93" cy="215.58" rx=".45" ry=".43"/><ellipse id="ellipse5070" cx="331.18" cy="217.08" rx=".45" ry=".43" style="fill:#fff"/><ellipse id="ellipse5072" cx="332.06" cy="215.31" rx=".45" ry=".43"/><ellipse id="ellipse5074" cx="333.51" cy="215.25" rx=".45" ry=".43"/><ellipse id="ellipse5076" cx="334.86" cy="215.9" rx=".45" ry=".43"/><ellipse id="ellipse5078" cx="335.88" cy="217.1" rx=".45" ry=".43"/><ellipse id="ellipse5080" cx="336.05" cy="218.68" rx=".45" ry=".43"/></g><use id="use5082" width="100%" height="100%" x="149.17" y="0" xlink:href="#crown_pt1"/><use id="use5084" width="100%" height="100%" x="149.17" y="0" xlink:href="#crown_pt2"/></g><use id="pillar_right" width="100%" height="100%" x="149.17" y="0" xlink:href="#pillar_left"/><use id="ribbon_right" width="100%" height="100%" x="0" y="0" transform="matrix(-1,0,0,1,500.57,0)" xlink:href="#ribbon_left"/><g id="plus_ultra" style="fill:#c8b100;stroke:none"><path id="path5089" d="m 166.42,264.65 c 1.99,-0.72 3.29,-1.58 2.66,-3.14 -0.41,-1 -1.43,-1.19 -2.97,-0.63 l -2.71,0.99 2.44,6.03 c 0.27,-0.12 0.54,-0.24 0.81,-0.34 0.28,-0.1 0.57,-0.18 0.85,-0.26 l -1.08,-2.64 0,-0.01 z m -1.18,-2.91 0.69,-0.25 c 0.57,-0.21 1.21,0.1 1.5,0.8 0.21,0.53 0.16,1.13 -0.5,1.55 -0.21,0.13 -0.46,0.23 -0.7,0.33 l -0.99,-2.43"/><path id="path5091" d="m 172.78,259.22 c -0.29,0.08 -0.57,0.16 -0.86,0.22 -0.29,0.05 -0.59,0.09 -0.88,0.12 l 1.41,6.28 4.38,-0.88 c -0.05,-0.12 -0.12,-0.26 -0.14,-0.38 -0.03,-0.14 -0.03,-0.28 -0.04,-0.41 -0.77,0.22 -1.61,0.46 -2.61,0.66 l -1.26,-5.61"/><path id="path5093" d="m 181.56,264.63 c 0.82,-2.28 1.82,-4.46 2.81,-6.67 -0.18,0.03 -0.36,0.06 -0.54,0.07 -0.18,0.01 -0.37,0.01 -0.54,0 -0.53,1.61 -1.18,3.21 -1.87,4.8 -0.82,-1.51 -1.73,-2.99 -2.43,-4.51 -0.34,0.04 -0.69,0.09 -1.03,0.12 -0.34,0.02 -0.7,0.01 -1.04,0.02 1.26,2.06 2.48,4.11 3.64,6.23 0.16,-0.03 0.32,-0.06 0.5,-0.08 0.16,-0.01 0.33,0.01 0.5,0.02"/><path id="path5095" d="m 190.72,259.8 c 0.15,-0.31 0.31,-0.6 0.48,-0.89 -0.24,-0.22 -0.96,-0.55 -1.81,-0.63 -1.79,-0.18 -2.81,0.61 -2.93,1.69 -0.26,2.26 3.31,2.07 3.14,3.57 -0.07,0.64 -0.75,0.9 -1.48,0.83 -0.81,-0.08 -1.41,-0.53 -1.51,-1.19 l -0.22,-0.02 c -0.12,0.39 -0.29,0.77 -0.48,1.15 0.53,0.34 1.21,0.53 1.85,0.59 1.83,0.19 3.22,-0.54 3.35,-1.74 0.23,-2.15 -3.37,-2.27 -3.23,-3.54 0.06,-0.53 0.47,-0.88 1.4,-0.79 0.67,0.07 1.08,0.43 1.26,0.95 l 0.18,0.02"/><path id="path5097" d="m 310.3,264.98 c 0.62,-2.33 1.41,-4.58 2.19,-6.87 -0.17,0.05 -0.35,0.09 -0.53,0.11 -0.17,0.03 -0.36,0.04 -0.54,0.05 -0.37,1.64 -0.88,3.29 -1.42,4.94 -0.96,-1.44 -2,-2.84 -2.83,-4.3 -0.34,0.07 -0.68,0.15 -1.02,0.2 -0.34,0.05 -0.69,0.07 -1.04,0.11 1.45,1.94 2.85,3.89 4.2,5.91 0.16,-0.04 0.32,-0.1 0.5,-0.12 0.16,-0.02 0.33,-0.02 0.49,-0.03"/><path id="path5099" d="m 316.48,258.16 c -0.29,0.01 -0.59,0.04 -0.88,0.03 -0.3,0 -0.6,-0.04 -0.89,-0.06 l -0.12,6.41 4.49,0.08 c -0.03,-0.13 -0.06,-0.28 -0.06,-0.41 0,-0.13 0.04,-0.27 0.07,-0.4 -0.81,0.05 -1.68,0.1 -2.71,0.08 l 0.1,-5.73"/><path id="path5101" d="m 323.52,259.21 c 0.72,0.06 1.41,0.19 2.1,0.31 -0.01,-0.13 -0.03,-0.27 -0.02,-0.41 0.01,-0.13 0.06,-0.26 0.1,-0.39 l -6.07,-0.5 c 0.01,0.14 0.03,0.27 0.02,0.4 -0.01,0.14 -0.06,0.27 -0.1,0.4 0.62,-0.02 1.37,-0.02 2.21,0.05 l -0.53,5.77 c 0.29,0 0.59,0 0.88,0.03 0.3,0.02 0.59,0.07 0.88,0.11 l 0.53,-5.77"/><path id="path5103" d="m 326.01,265.53 c 0.29,0.05 0.59,0.09 0.88,0.15 0.28,0.06 0.57,0.15 0.85,0.23 l 0.72,-2.94 0.08,0.01 c 0.16,0.41 0.38,0.9 0.49,1.19 l 0.9,2.22 c 0.36,0.06 0.71,0.11 1.05,0.18 0.36,0.08 0.7,0.18 1.04,0.28 l -0.31,-0.67 c -0.48,-1 -0.99,-2.01 -1.41,-3.02 1.12,0.04 1.98,-0.36 2.2,-1.26 0.15,-0.62 -0.1,-1.11 -0.68,-1.53 -0.44,-0.31 -1.28,-0.47 -1.83,-0.6 l -2.44,-0.53 -1.54,6.29 m 3.14,-5.42 c 0.71,0.16 1.59,0.27 1.59,1.07 -0.01,0.21 -0.03,0.35 -0.06,0.48 -0.23,0.94 -0.94,1.26 -2.13,0.91 l 0.6,-2.46"/><path id="path5105" d="m 337.57,267.46 c -0.05,0.69 -0.18,1.37 -0.31,2.1 0.3,0.14 0.61,0.27 0.9,0.44 0.3,0.16 0.57,0.34 0.86,0.52 l 0.6,-7.23 c -0.14,-0.06 -0.27,-0.12 -0.41,-0.19 -0.13,-0.07 -0.25,-0.15 -0.37,-0.24 l -6.38,4.05 c 0.17,0.08 0.35,0.16 0.51,0.25 0.17,0.09 0.31,0.19 0.47,0.28 0.54,-0.45 1.1,-0.82 1.74,-1.3 l 2.39,1.31 0,0.01 z m -1.81,-1.66 2.13,-1.37 -0.25,2.4 -1.88,-1.03"/></g></g><g id="crown_crest"><path id="path5108" d="m 249.65,182.72 c 6.64,0 12.56,0.99 16.41,2.51 2.2,1 5.16,1.73 8.4,2.17 2.47,0.33 4.81,0.39 6.85,0.24 2.73,-0.06 6.67,0.74 10.62,2.48 3.26,1.45 5.99,3.21 7.8,4.91 l -1.57,1.4 -0.45,3.96 -4.3,4.92 -2.15,1.83 -5.09,4.07 -2.6,0.21 -0.79,2.25 -32.91,-3.86 -33.02,3.86 -0.79,-2.25 -2.61,-0.21 -5.08,-4.07 -2.15,-1.83 -4.3,-4.92 -0.44,-3.96 -1.58,-1.4 c 1.82,-1.7 4.54,-3.46 7.8,-4.91 3.95,-1.74 7.89,-2.54 10.62,-2.48 2.04,0.15 4.38,0.09 6.85,-0.24 3.24,-0.44 6.2,-1.17 8.4,-2.17 3.86,-1.52 9.44,-2.51 16.08,-2.51 z" style="fill:#ad1519;stroke-width:.25999999"/><g id="g5110" style="fill:#c8b100"><path id="path5112" d="m 225.34,191.42 1.38,1.11 2.08,-3.4 c -2.25,-1.38 -3.8,-3.78 -3.8,-6.51 0,-0.31 0.02,-0.61 0.06,-0.91 0.21,-4.34 5.5,-7.92 12.2,-7.92 3.48,0 6.63,0.95 8.84,2.48 0.06,-0.67 0.12,-1.25 0.21,-1.86 -2.43,-1.42 -5.6,-2.28 -9.05,-2.28 -7.71,0 -13.74,4.39 -14.03,9.57 -0.03,0.31 -0.05,0.61 -0.05,0.92 0,2.76 1.26,5.26 3.26,6.99 l -1.1,1.81"/><path id="path5114" d="m 225.43,191.46 c -2.63,-1.97 -4.27,-4.64 -4.27,-7.58 0,-3.38 2.22,-6.4 5.58,-8.41 -2.07,1.67 -3.33,3.83 -3.51,6.23 -0.03,0.31 -0.05,0.61 -0.05,0.92 0,2.76 1.26,5.26 3.26,6.99 l -1.01,1.85"/><path id="path5116" d="m 202.21,194.89 c -1.48,-1.65 -2.38,-3.79 -2.38,-6.12 0,-1.41 0.33,-2.75 0.91,-3.95 2.13,-4.38 8.82,-7.57 16.76,-7.57 2.16,0 4.23,0.23 6.14,0.67 -0.42,0.46 -0.75,0.97 -1.08,1.48 -1.59,-0.31 -3.29,-0.48 -5.06,-0.48 -7.27,0 -13.36,2.83 -15.12,6.65 -0.47,0.97 -0.73,2.06 -0.73,3.2 0,2.32 1.09,4.4 2.79,5.82 l -2.63,4.3 -1.41,-1.12 1.81,-2.88 z"/><path id="path5118" d="m 204.9,180.48 c -1.91,1.21 -3.36,2.69 -4.16,4.34 -0.58,1.2 -0.91,2.54 -0.91,3.95 0,2.33 0.9,4.47 2.38,6.12 l -1.6,2.59 c -1.53,-1.96 -2.42,-4.26 -2.42,-6.7 0,-4.2 2.67,-7.87 6.71,-10.3 z"/><path id="path5120" d="m 250.04,171.27 c 1.76,0 3.28,1.16 3.64,2.73 0.23,1.38 0.38,2.95 0.41,4.62 0.01,0.18 -0.01,0.35 -0.01,0.52 0,0.2 0.04,0.41 0.05,0.61 0.06,3.52 0.56,6.62 1.27,8.52 l -5.36,5.14 -5.43,-5.14 c 0.72,-1.9 1.22,-5 1.29,-8.52 0,-0.2 0.04,-0.41 0.04,-0.61 0,-0.17 -0.01,-0.34 -0.01,-0.52 0.03,-1.67 0.18,-3.24 0.41,-4.62 0.36,-1.57 1.94,-2.73 3.7,-2.73 z"/><path id="path5122" d="m 250.04,172.94 c 0.91,0 1.68,0.58 1.87,1.39 0.23,1.31 0.37,2.8 0.4,4.38 0,0.16 -0.01,0.32 -0.01,0.48 0,0.2 0.03,0.39 0.04,0.59 0.05,3.32 0.53,6.25 1.21,8.05 l -3.54,3.35 -3.54,-3.35 c 0.67,-1.8 1.15,-4.73 1.21,-8.05 0,-0.2 0.04,-0.39 0.04,-0.59 0,-0.16 -0.01,-0.32 -0.01,-0.48 0.03,-1.58 0.17,-3.07 0.4,-4.38 0.18,-0.81 1.02,-1.39 1.93,-1.39 z"/><path id="path5124" d="m 274.7,191.42 -1.39,1.11 -2.08,-3.4 c 2.26,-1.38 3.81,-3.78 3.81,-6.51 0,-0.31 -0.02,-0.61 -0.06,-0.91 -0.21,-4.34 -5.5,-7.92 -12.2,-7.92 -3.49,0 -6.63,0.95 -8.84,2.48 -0.06,-0.67 -0.12,-1.25 -0.22,-1.86 2.44,-1.42 5.6,-2.28 9.06,-2.28 7.71,0 13.74,4.39 14.03,9.57 0.03,0.31 0.05,0.61 0.05,0.92 0,2.76 -1.27,5.26 -3.27,6.99 l 1.11,1.81"/><path id="path5126" d="m 274.61,191.46 c 2.63,-1.97 4.27,-4.64 4.27,-7.58 0,-3.38 -2.22,-6.4 -5.58,-8.41 2.07,1.67 3.33,3.83 3.51,6.23 0.03,0.31 0.05,0.61 0.05,0.92 0,2.76 -1.27,5.26 -3.27,6.99 l 1.02,1.85"/><path id="path5128" d="m 297.83,194.89 c 1.47,-1.65 2.38,-3.79 2.38,-6.12 0,-1.41 -0.33,-2.75 -0.91,-3.95 -2.14,-4.38 -8.82,-7.57 -16.76,-7.57 -2.16,0 -4.23,0.23 -6.15,0.67 0.43,0.46 0.76,0.97 1.09,1.48 1.58,-0.31 3.29,-0.48 5.06,-0.48 7.27,0 13.35,2.83 15.11,6.65 0.47,0.97 0.73,2.06 0.73,3.2 0,2.32 -1.09,4.4 -2.79,5.82 l 2.63,4.3 1.42,-1.12 -1.81,-2.88 z"/><path id="path5130" d="m 295.14,180.48 c 1.91,1.21 3.36,2.69 4.16,4.34 0.58,1.2 0.91,2.54 0.91,3.95 0,2.33 -0.91,4.47 -2.38,6.12 l 1.6,2.59 c 1.53,-1.96 2.41,-4.26 2.41,-6.7 0,-4.2 -2.67,-7.87 -6.7,-10.3 z"/><ellipse id="ellipse5132" cx="250.05" cy="167.3" rx="4.43" ry="4.2" style="fill:#005bbf;stroke-width:.25999999"/><path id="path5134" d="m 248.89,155.54 0,2.26 -2.42,0 0,2.3 2.42,0 0,3.15 0,3.46 -3.05,0 c -0.03,0.21 -0.22,0.37 -0.22,0.59 0,0.58 0.12,1.14 0.35,1.64 0,0.02 0.02,0.02 0.03,0.03 l 8.12,0 c 0,-0.01 0.02,-0.01 0.03,-0.03 0.22,-0.5 0.35,-1.06 0.35,-1.64 0,-0.22 -0.19,-0.38 -0.22,-0.59 l -2.96,0 0,-3.43 0,-3.18 2.42,0 0,-2.3 -2.42,0 0,-2.26 -2.43,0 z" style="stroke-width:.25999999"/></g><g id="g5136" style="fill:#fff"><ellipse id="ellipse5138" cx="250.04" cy="188.94" rx="1.91" ry="1.8"/><ellipse id="ellipse5140" cx="250.04" cy="185.4" rx="1.91" ry="1.8"/><ellipse id="ellipse5142" cx="250.04" cy="181.6" rx="1.52" ry="1.44"/><ellipse id="ellipse5144" cx="250.04" cy="178.18" rx="1.1" ry="1.04"/><ellipse id="ellipse5146" cx="250.04" cy="175.18" rx=".88" ry=".83"/><ellipse id="ellipse5148" cx="198.94" cy="198.67" rx="1.1" ry="1.04"/><ellipse id="ellipse5150" cx="197.44" cy="196.02" rx="1.1" ry="1.04"/><ellipse id="ellipse5152" cx="196.44" cy="192.94" rx="1.1" ry="1.04"/><ellipse id="ellipse5154" cx="196.31" cy="189.64" rx="1.1" ry="1.04"/><ellipse id="ellipse5156" cx="197.12" cy="186.4" rx="1.1" ry="1.04"/><ellipse id="ellipse5158" cx="198.81" cy="183.45" rx="1.1" ry="1.04"/><ellipse id="ellipse5160" cx="201.06" cy="181.02" rx="1.1" ry="1.04"/><ellipse id="ellipse5162" cx="203.68" cy="179.01" rx="1.1" ry="1.04"/><ellipse id="ellipse5164" cx="206.8" cy="177.36" rx="1.1" ry="1.04"/><ellipse id="ellipse5166" cx="210.04" cy="176.19" rx="1.1" ry="1.04"/><ellipse id="ellipse5168" cx="213.66" cy="175.54" rx="1.1" ry="1.04"/><ellipse id="ellipse5170" cx="217.1" cy="175.36" rx="1.1" ry="1.04"/><ellipse id="ellipse5172" cx="220.47" cy="175.48" rx="1.1" ry="1.04"/><ellipse id="ellipse5174" cx="224.21" cy="190.32" rx="1.1" ry="1.04"/><ellipse id="ellipse5176" cx="222.34" cy="187.65" rx="1.1" ry="1.04"/><ellipse id="ellipse5178" cx="221.35" cy="184.75" rx="1.1" ry="1.04"/><ellipse id="ellipse5180" cx="221.47" cy="181.57" rx="1.1" ry="1.04"/><ellipse id="ellipse5182" cx="222.16" cy="178.37" rx="1.1" ry="1.04"/><ellipse id="ellipse5184" cx="223.84" cy="175.48" rx="1.1" ry="1.04"/><ellipse id="ellipse5186" cx="226.4" cy="173.47" rx="1.1" ry="1.04"/><ellipse id="ellipse5188" cx="229.39" cy="171.81" rx="1.1" ry="1.04"/><ellipse id="ellipse5190" cx="232.7" cy="170.82" rx="1.1" ry="1.04"/><ellipse id="ellipse5192" cx="236.13" cy="170.23" rx="1.1" ry="1.04"/><ellipse id="ellipse5194" cx="239.5" cy="170.28" rx="1.1" ry="1.04"/><ellipse id="ellipse5196" cx="242.99" cy="170.87" rx="1.1" ry="1.04"/><ellipse id="ellipse5198" cx="246.23" cy="171.99" rx="1.1" ry="1.04"/><ellipse id="ellipse5200" cx="253.8" cy="171.99" rx="1.1" ry="1.04"/><ellipse id="ellipse5202" cx="257.04" cy="170.87" rx="1.1" ry="1.04"/><ellipse id="ellipse5204" cx="260.54" cy="170.28" rx="1.1" ry="1.04"/><ellipse id="ellipse5206" cx="263.9" cy="170.23" rx="1.1" ry="1.04"/><ellipse id="ellipse5208" cx="267.34" cy="170.82" rx="1.1" ry="1.04"/><ellipse id="ellipse5210" cx="270.64" cy="171.81" rx="1.1" ry="1.04"/><ellipse id="ellipse5212" cx="273.64" cy="173.47" rx="1.1" ry="1.04"/><ellipse id="ellipse5214" cx="276.19" cy="175.48" rx="1.1" ry="1.04"/><ellipse id="ellipse5216" cx="277.88" cy="178.37" rx="1.1" ry="1.04"/><ellipse id="ellipse5218" cx="278.57" cy="181.57" rx="1.1" ry="1.04"/><ellipse id="ellipse5220" cx="278.69" cy="184.75" rx="1.1" ry="1.04"/><ellipse id="ellipse5222" cx="277.69" cy="187.65" rx="1.1" ry="1.04"/><ellipse id="ellipse5224" cx="275.83" cy="190.32" rx="1.1" ry="1.04"/><ellipse id="ellipse5226" cx="279.57" cy="175.48" rx="1.1" ry="1.04"/><ellipse id="ellipse5228" cx="282.94" cy="175.36" rx="1.1" ry="1.04"/><ellipse id="ellipse5230" cx="286.38" cy="175.54" rx="1.1" ry="1.04"/><ellipse id="ellipse5232" cx="290" cy="176.19" rx="1.1" ry="1.04"/><ellipse id="ellipse5234" cx="293.24" cy="177.36" rx="1.1" ry="1.04"/><ellipse id="ellipse5236" cx="296.36" cy="179.01" rx="1.1" ry="1.04"/><ellipse id="ellipse5238" cx="298.97" cy="181.02" rx="1.1" ry="1.04"/><ellipse id="ellipse5240" cx="301.22" cy="183.45" rx="1.1" ry="1.04"/><ellipse id="ellipse5242" cx="302.91" cy="186.4" rx="1.1" ry="1.04"/><ellipse id="ellipse5244" cx="303.72" cy="189.64" rx="1.1" ry="1.04"/><ellipse id="ellipse5246" cx="303.6" cy="192.94" rx="1.1" ry="1.04"/><ellipse id="ellipse5248" cx="302.6" cy="196.02" rx="1.1" ry="1.04"/><ellipse id="ellipse5250" cx="301.1" cy="198.67" rx="1.1" ry="1.04"/></g><g id="g5252" style="fill:#c8b100"><path id="path5254" d="m 250.15,226.18 c -12.26,-0.02 -23.25,-1.47 -31.09,-3.83 -0.57,-0.18 -0.87,-0.7 -0.84,-1.25 -0.01,-0.52 0.29,-1 0.84,-1.17 7.84,-2.36 18.83,-3.81 31.09,-3.83 12.27,0.02 23.25,1.47 31.09,3.83 0.55,0.17 0.84,0.65 0.83,1.17 0.03,0.55 -0.27,1.07 -0.83,1.25 -7.84,2.36 -18.82,3.81 -31.09,3.83"/><path id="path5256" d="m 250.07,216.09 c -12.41,0.03 -23.55,1.58 -31.39,4 0.65,-0.31 0.59,-1.12 -0.22,-3.2 -0.98,-2.53 -2.5,-2.42 -2.5,-2.42 8.66,-2.56 20.73,-4.16 34.16,-4.18 13.44,0.02 25.6,1.62 34.27,4.18 0,0 -1.53,-0.11 -2.51,2.42 -0.81,2.08 -0.87,2.89 -0.21,3.2 -7.84,-2.42 -19.19,-3.97 -31.6,-4"/><path id="path5258" d="m 250.12,210.3 c -13.43,0.02 -25.5,1.62 -34.16,4.18 -0.58,0.17 -1.19,-0.05 -1.38,-0.6 -0.19,-0.55 0.12,-1.18 0.7,-1.35 8.71,-2.67 21.08,-4.35 34.84,-4.38 13.77,0.03 26.19,1.71 34.9,4.38 0.58,0.17 0.89,0.8 0.7,1.35 -0.19,0.55 -0.8,0.77 -1.38,0.6 -8.67,-2.56 -20.78,-4.16 -34.22,-4.18"/><path id="path5260" d="m 250.2,199.78 1.23,0.22 c -0.19,0.5 -0.24,1.05 -0.24,1.63 0,2.57 2.21,4.65 4.92,4.65 2.18,0 4.04,-1.35 4.67,-3.21 0.08,0.05 0.47,-1.68 0.68,-1.66 0.17,0.02 0.15,1.8 0.22,1.77 0.31,2.34 2.46,3.93 4.87,3.93 2.71,0 4.91,-2.08 4.91,-4.65 0,-0.19 -0.01,-0.38 -0.04,-0.57 l 1.54,-1.52 0.83,1.94 c -0.33,0.61 -0.46,1.3 -0.46,2.03 0,2.46 2.1,4.44 4.69,4.44 1.63,0 3.06,-0.78 3.9,-1.97 l 0.99,-1.25 -0.01,1.53 c 0,1.55 0.66,2.93 2.16,3.18 0,0 1.73,0.1 4.03,-1.7 2.29,-1.8 3.55,-3.29 3.55,-3.29 l 0.2,1.8 c 0,0 -1.9,2.95 -3.97,4.15 -1.14,0.66 -2.86,1.35 -4.23,1.13 -1.44,-0.24 -2.48,-1.4 -3.01,-2.74 -1.03,0.61 -2.25,0.97 -3.55,0.97 -2.81,0 -5.33,-1.54 -6.32,-3.86 -1.29,1.4 -3.09,2.25 -5.2,2.25 -2.24,0 -4.29,-1.01 -5.57,-2.56 -1.27,1.16 -2.98,1.87 -4.88,1.87 -2.48,0 -4.69,-1.22 -5.94,-3.05 -1.25,1.83 -3.46,3.05 -5.94,3.05 -1.89,0 -3.61,-0.71 -4.87,-1.87 -1.28,1.55 -3.34,2.56 -5.58,2.56 -2.11,0 -3.9,-0.85 -5.19,-2.25 -1,2.32 -3.52,3.86 -6.32,3.86 -1.31,0 -2.52,-0.36 -3.55,-0.97 -0.54,1.34 -1.57,2.5 -3.02,2.74 -1.36,0.22 -3.08,-0.47 -4.22,-1.13 -2.08,-1.2 -3.98,-4.15 -3.98,-4.15 l 0.2,-1.8 c 0,0 1.27,1.49 3.56,3.29 2.29,1.81 4.02,1.7 4.02,1.7 1.51,-0.25 2.16,-1.63 2.16,-3.18 l -0.01,-1.53 0.99,1.25 c 0.84,1.19 2.28,1.97 3.9,1.97 2.59,0 4.69,-1.98 4.69,-4.44 0,-0.73 -0.13,-1.42 -0.46,-2.03 l 0.83,-1.94 1.54,1.52 c -0.02,0.19 -0.04,0.38 -0.04,0.57 0,2.57 2.2,4.65 4.91,4.65 2.42,0 4.56,-1.59 4.88,-3.93 0.06,0.03 0.05,-1.75 0.22,-1.77 0.2,-0.02 0.6,1.71 0.67,1.66 0.64,1.86 2.49,3.21 4.68,3.21 2.71,0 4.91,-2.08 4.91,-4.65 0,-0.58 -0.03,-1.13 -0.24,-1.63 l 1.29,-0.22"/><path id="path5262" d="m 208.37,206.32 c -0.11,-0.37 -0.35,-0.75 -0.72,-1.06 -0.79,-0.68 -1.84,-0.79 -2.36,-0.25 -0.07,0.07 -0.13,0.17 -0.17,0.25 0,0 -1.11,-2.08 -2.41,-2.78 -1.29,-0.7 -3.49,-0.52 -3.49,-0.52 0,-1.6 1.3,-2.89 2.99,-2.89 0.99,0 1.92,0.41 2.48,1.11 l 0.23,-1.07 c 0,0 1.36,0.27 1.98,1.82 0.62,1.55 -0.06,3.8 -0.06,3.8 0,0 0.34,-0.96 0.85,-1.61 0.51,-0.64 1.81,-1.34 2.49,-1.66 0.67,-0.31 1.37,-0.79 1.37,-0.79 0,0 0.03,0.18 0.05,0.61 0.03,0.51 -0.01,0.83 -0.01,0.83 1.24,-0.17 2.69,0.04 3.83,0.48 -0.49,0.95 -1.41,1.84 -2.62,2.3 0,0 0.44,0.36 0.83,0.75 0.34,0.34 0.44,0.49 0.44,0.49 0,0 -0.85,0.13 -1.27,0.19 -0.43,0.05 -1.84,0.28 -2.69,0.22 -0.62,-0.04 -1.32,-0.14 -1.74,-0.22"/><path id="path5264" d="m 205.29,205.01 c 0.52,-0.54 1.57,-0.43 2.36,0.25 0.8,0.67 1.02,1.66 0.51,2.19 -0.51,0.54 -1.57,0.42 -2.36,-0.25 -0.79,-0.68 -1.02,-1.66 -0.51,-2.19" style="fill:#ad1519"/><path id="path5266" d="m 216.39,205.91 c -0.28,-0.83 -0.03,-1.65 0.57,-1.83 0.6,-0.19 1.32,0.33 1.6,1.16 0.28,0.83 0.03,1.65 -0.57,1.84 -0.6,0.18 -1.31,-0.34 -1.6,-1.17" style="fill:#fff"/><path id="path5268" d="m 226.12,201.86 c -0.33,-0.27 -0.59,-0.64 -0.67,-1.08 -0.08,-0.44 0.01,-0.87 0.23,-1.23 0,0 -0.88,-0.44 -1.83,-0.69 -0.72,-0.19 -1.99,-0.2 -2.37,-0.2 -0.38,-0.02 -1.15,-0.03 -1.15,-0.03 0,0 0.07,0.17 0.28,0.55 0.27,0.46 0.5,0.75 0.5,0.75 -1.27,0.29 -2.35,1.12 -3.03,2.09 0.99,0.68 2.3,1.1 3.6,0.97 0,0 -0.12,0.34 -0.2,0.86 -0.06,0.43 -0.06,0.61 -0.06,0.61 0,0 0.71,-0.26 1.07,-0.39 0.35,-0.13 1.54,-0.55 2.15,-0.96 0.8,-0.54 1.48,-1.25 1.48,-1.25"/><path id="path5270" d="m 225.68,191.65 c 1.06,0.67 1.98,1.79 2.3,3.03 0,0 0.13,-0.25 0.71,-0.59 0.59,-0.33 1.09,-0.32 1.09,-0.32 0,0 -0.17,0.97 -0.25,1.32 -0.09,0.34 -0.09,1.38 -0.32,2.32 -0.23,0.93 -0.63,1.68 -0.63,1.68 -0.42,-0.34 -0.99,-0.51 -1.58,-0.41 -0.58,0.1 -1.06,0.44 -1.32,0.9 0,0 -0.66,-0.58 -1.21,-1.38 -0.55,-0.81 -0.93,-1.78 -1.13,-2.08 -0.21,-0.3 -0.72,-1.15 -0.72,-1.15 0,0 0.47,-0.18 1.14,-0.05 0.67,0.12 0.88,0.32 0.88,0.32 -0.14,-1.28 0.28,-2.62 1.04,-3.59"/><path id="path5272" d="m 228.97,201.38 c 0.22,-0.35 0.32,-0.79 0.24,-1.23 -0.08,-0.44 -0.32,-0.81 -0.66,-1.07 0,0 0.67,-0.71 1.47,-1.26 0.6,-0.41 1.8,-0.82 2.15,-0.95 0.36,-0.13 1.07,-0.4 1.07,-0.4 0,0 0,0.18 -0.06,0.61 -0.08,0.52 -0.2,0.87 -0.2,0.87 1.3,-0.14 2.62,0.29 3.61,0.98 -0.69,0.97 -1.77,1.79 -3.04,2.08 0,0 0.23,0.28 0.5,0.74 0.21,0.39 0.28,0.56 0.28,0.56 0,0 -0.77,-0.02 -1.15,-0.03 -0.38,0 -1.65,-0.01 -2.37,-0.2 -0.95,-0.25 -1.84,-0.69 -1.84,-0.69"/><ellipse id="ellipse5274" cx="227.37" cy="200.45" rx="2.17" ry="2.06" style="fill:#ad1519"/><path id="path5276" d="m 237.76,201.77 c -0.11,-0.87 0.31,-1.63 0.93,-1.7 0.63,-0.07 1.23,0.57 1.34,1.44 0.11,0.86 -0.3,1.63 -0.93,1.7 -0.62,0.07 -1.22,-0.57 -1.34,-1.44" style="fill:#fff"/><path id="path5278" d="m 248.5,199.83 c -0.32,-0.36 -0.53,-0.82 -0.53,-1.33 0,-0.5 0.19,-0.97 0.51,-1.32 0,0 -0.89,-0.67 -1.89,-1.12 -0.77,-0.35 -2.18,-0.59 -2.6,-0.67 -0.43,-0.08 -1.28,-0.24 -1.28,-0.24 0,0 0.04,0.2 0.2,0.67 0.2,0.56 0.4,0.93 0.4,0.93 -1.47,0.08 -2.85,0.81 -3.81,1.76 0.96,0.94 2.34,1.66 3.81,1.75 0,0 -0.2,0.36 -0.4,0.93 -0.16,0.46 -0.2,0.67 -0.2,0.67 0,0 0.85,-0.16 1.28,-0.24 0.42,-0.08 1.83,-0.32 2.6,-0.67 1,-0.46 1.91,-1.11 1.91,-1.11"/><path id="path5280" d="m 250.11,188.36 c 1.05,0.95 1.85,2.36 1.95,3.82 0,0 0.19,-0.27 0.91,-0.53 0.73,-0.26 1.28,-0.16 1.28,-0.16 0,0 -0.39,1.05 -0.55,1.42 -0.17,0.37 -0.39,1.53 -0.84,2.53 -0.44,1 -1.05,1.76 -1.05,1.76 -0.4,-0.45 -1,-0.75 -1.67,-0.75 -0.68,0 -1.27,0.3 -1.67,0.75 0,0 -0.61,-0.76 -1.05,-1.76 -0.45,-1 -0.67,-2.16 -0.84,-2.53 -0.17,-0.37 -0.56,-1.42 -0.56,-1.42 0,0 0.56,-0.1 1.28,0.16 0.72,0.26 0.92,0.53 0.92,0.53 0.1,-1.46 0.86,-2.87 1.89,-3.82"/><path id="path5282" d="m 251.76,199.83 c 0.33,-0.36 0.53,-0.82 0.53,-1.33 0,-0.5 -0.19,-0.97 -0.51,-1.32 0,0 0.89,-0.67 1.9,-1.12 0.76,-0.35 2.17,-0.59 2.6,-0.67 0.42,-0.08 1.26,-0.24 1.26,-0.24 0,0 -0.02,0.2 -0.19,0.67 -0.2,0.56 -0.4,0.93 -0.4,0.93 1.47,0.08 2.86,0.81 3.81,1.76 -0.95,0.94 -2.33,1.66 -3.81,1.75 0,0 0.2,0.36 0.4,0.93 0.16,0.46 0.19,0.67 0.19,0.67 l -1.26,-0.24 c -0.43,-0.08 -1.84,-0.32 -2.6,-0.67 -1.01,-0.46 -1.92,-1.11 -1.92,-1.11"/><ellipse id="ellipse5284" cx="250.14" cy="198.5" rx="2.17" ry="2.06" style="fill:#ad1519"/><path id="path5286" d="m 262.58,201.77 c 0.11,-0.87 -0.3,-1.63 -0.93,-1.7 -0.63,-0.07 -1.23,0.57 -1.34,1.44 -0.11,0.86 0.31,1.63 0.93,1.7 0.63,0.07 1.23,-0.57 1.34,-1.44" style="fill:#fff"/><path id="path5288" d="m 271.38,201.38 c -0.22,-0.35 -0.32,-0.79 -0.25,-1.23 0.09,-0.44 0.33,-0.81 0.67,-1.07 0,0 -0.67,-0.71 -1.47,-1.26 -0.61,-0.41 -1.8,-0.82 -2.16,-0.95 -0.35,-0.13 -1.06,-0.4 -1.06,-0.4 0,0 -0.01,0.18 0.06,0.61 0.08,0.52 0.19,0.87 0.19,0.87 -1.29,-0.14 -2.61,0.29 -3.6,0.98 0.68,0.97 1.77,1.79 3.03,2.08 0,0 -0.23,0.28 -0.49,0.74 -0.22,0.39 -0.28,0.56 -0.28,0.56 l 1.14,-0.03 c 0.38,0 1.66,-0.01 2.37,-0.2 0.95,-0.25 1.84,-0.69 1.84,-0.69"/><path id="path5290" d="m 274.67,191.65 c -1.06,0.67 -1.98,1.79 -2.31,3.03 0,0 -0.12,-0.25 -0.71,-0.59 -0.58,-0.33 -1.09,-0.32 -1.09,-0.32 0,0 0.17,0.97 0.26,1.32 0.09,0.34 0.09,1.38 0.31,2.32 0.23,0.93 0.64,1.68 0.64,1.68 0.42,-0.34 0.99,-0.51 1.57,-0.41 0.59,0.1 1.06,0.44 1.33,0.9 0,0 0.66,-0.58 1.21,-1.38 0.54,-0.81 0.92,-1.78 1.12,-2.08 0.21,-0.3 0.72,-1.15 0.72,-1.15 0,0 -0.47,-0.18 -1.14,-0.05 -0.67,0.12 -0.88,0.32 -0.88,0.32 0.15,-1.28 -0.28,-2.62 -1.03,-3.59"/><path id="path5292" d="m 274.22,201.86 c 0.34,-0.27 0.6,-0.64 0.67,-1.08 0.09,-0.44 0,-0.87 -0.22,-1.23 0,0 0.88,-0.44 1.83,-0.69 0.72,-0.19 1.99,-0.2 2.36,-0.2 0.39,-0.02 1.15,-0.03 1.15,-0.03 0,0 -0.06,0.17 -0.28,0.55 -0.26,0.46 -0.49,0.75 -0.49,0.75 1.26,0.29 2.34,1.12 3.03,2.09 -0.99,0.68 -2.31,1.1 -3.6,0.97 0,0 0.11,0.34 0.19,0.86 0.06,0.43 0.06,0.61 0.06,0.61 0,0 -0.71,-0.26 -1.06,-0.39 -0.36,-0.13 -1.55,-0.55 -2.16,-0.96 -0.79,-0.54 -1.48,-1.25 -1.48,-1.25"/><ellipse id="ellipse5294" cx="272.98" cy="200.45" rx="2.17" ry="2.06" style="fill:#ad1519"/><path id="path5296" d="m 283.96,205.91 c 0.28,-0.83 0.03,-1.65 -0.57,-1.83 -0.6,-0.19 -1.32,0.33 -1.61,1.16 -0.28,0.83 -0.03,1.65 0.57,1.84 0.6,0.18 1.32,-0.34 1.61,-1.17" style="fill:#fff"/><path id="path5298" d="m 291.97,206.32 c 0.11,-0.37 0.36,-0.75 0.72,-1.06 0.79,-0.68 1.85,-0.79 2.36,-0.25 0.07,0.07 0.14,0.17 0.18,0.25 0,0 1.1,-2.08 2.4,-2.78 1.3,-0.7 3.5,-0.52 3.5,-0.52 0,-1.6 -1.31,-2.89 -3,-2.89 -0.99,0 -1.92,0.41 -2.47,1.11 l -0.23,-1.07 c 0,0 -1.36,0.27 -1.98,1.82 -0.62,1.55 0.05,3.8 0.05,3.8 0,0 -0.33,-0.96 -0.84,-1.61 -0.51,-0.64 -1.81,-1.34 -2.49,-1.66 -0.68,-0.31 -1.37,-0.79 -1.37,-0.79 0,0 -0.03,0.18 -0.06,0.61 -0.02,0.51 0.02,0.83 0.02,0.83 -1.25,-0.17 -2.7,0.04 -3.83,0.48 0.48,0.95 1.4,1.84 2.61,2.3 0,0 -0.43,0.36 -0.83,0.75 -0.33,0.34 -0.43,0.49 -0.43,0.49 0,0 0.85,0.13 1.27,0.19 0.43,0.05 1.84,0.28 2.68,0.22 0.63,-0.04 1.32,-0.14 1.74,-0.22"/><path id="path5300" d="m 295.05,205.01 c -0.51,-0.54 -1.57,-0.43 -2.36,0.25 -0.79,0.67 -1.02,1.66 -0.51,2.19 0.51,0.54 1.57,0.42 2.36,-0.25 0.79,-0.68 1.02,-1.66 0.51,-2.19" style="fill:#ad1519"/></g><g id="g5302" style="fill:none"><path id="path5304" d="m 250.12,224.57 c -11.06,-0.01 -21.07,-1.29 -28.68,-3.26 7.61,-1.97 17.62,-3.17 28.68,-3.19 11.07,0.02 21.13,1.22 28.74,3.19 -7.61,1.97 -17.67,3.25 -28.74,3.26 z" style="fill:#ad1519;stroke-linejoin:round"/><path id="path5306" d="m 258.04,224.28 0,-6.01 m -3.02,6.21 0.04,-6.37 m -2.24,6.45 0,-6.49" style="stroke-width:.05"/><path id="path5308" d="m 250.95,224.64 0,-6.57" style="stroke-width:.09"/><path id="path5310" d="m 249.16,224.64 0,-6.57" style="stroke-width:.14"/><path id="path5312" d="m 247.48,224.64 0,-6.57" style="stroke-width:.18000001"/><path id="path5314" d="m 245.81,224.64 0,-6.57" style="stroke-width:.23"/><path id="path5316" d="m 244.32,224.64 0,-6.57" style="stroke-width:.28"/><path id="path5318" d="m 241.48,224.28 -0.04,-5.97 m 1.39,6.05 0,-6.25" style="stroke-width:.33000001"/><path id="path5320" d="m 238.86,224.01 0,-5.5 m 1.33,5.66 -0.04,-5.86" style="stroke-width:.37"/><path id="path5322" d="m 235.35,223.7 0,-4.84 m 1.15,4.92 0,-5.08 m 1.19,5.24 0,-5.28" style="stroke-width:.41999999"/><path id="path5324" d="m 234.12,223.66 0,-4.68" style="stroke-width:.46000001"/><path id="path5326" d="m 232.97,223.42 0,-4.36" style="stroke-width:.50999999"/><path id="path5328" d="m 231.74,223.31 0,-4.06" style="stroke-width:.56"/><path id="path5330" d="m 229.22,222.95 -0.04,-3.22 m 1.33,3.38 0,-3.62" style="stroke-width:.60000002"/><path id="path5332" d="m 227.93,222.68 0,-2.84" style="stroke-width:.63"/><path id="path5334" d="m 226.74,222.45 0,-2.36" style="stroke-width:.68000001"/><path id="path5336" d="m 225.45,222.13 0,-1.85" style="stroke-width:.73000002"/><path id="path5338" d="m 224.12,221.98 0,-1.38" style="stroke-width:.76999998"/><path id="path5340" d="m 222.72,221.66 0,-0.67" style="stroke-width:.91000003"/><path id="path5342" d="m 220.12,221.66 c 7.75,-2.18 18.29,-3.52 30,-3.54 11.72,0.02 22.31,1.36 30.06,3.54"/><path id="path5344" d="m 216.72,217.16 1.22,-1.59 3.37,0.43 -2.69,1.96 -1.9,-0.8" style="fill:#ad1519"/><path id="path5346" d="m 224.03,215.28 c 0,-0.58 0.49,-1.04 1.1,-1.04 0.61,0 1.1,0.46 1.1,1.04 0,0.57 -0.49,1.04 -1.1,1.04 -0.61,0 -1.1,-0.47 -1.1,-1.04" style="fill:#fff"/><path id="path5348" d="m 233.64,215.07 -2.36,0.27 c -0.61,0.07 -1.17,-0.33 -1.24,-0.9 -0.08,-0.57 0.35,-1.09 0.96,-1.15 l 2.37,-0.28 2.42,-0.28 c 0.6,-0.07 1.15,0.33 1.22,0.9 0.07,0.57 -0.36,1.09 -0.96,1.16 l -2.41,0.28" style="fill:#058e6e"/><path id="path5350" d="m 240.54,213.35 c 0,-0.58 0.49,-1.04 1.1,-1.04 0.6,0 1.1,0.46 1.1,1.04 0,0.57 -0.5,1.04 -1.1,1.04 -0.61,0 -1.1,-0.47 -1.1,-1.04" style="fill:#fff"/><path id="path5352" d="m 250.15,214.16 -3.29,0 c -0.6,0 -1.11,-0.46 -1.11,-1.03 0,-0.58 0.49,-1.04 1.1,-1.04 l 6.64,0 c 0.61,0 1.1,0.46 1.1,1.04 0,0.57 -0.51,1.03 -1.11,1.03 l -3.33,0" style="fill:#ad1519"/><path id="path5354" d="m 257.56,213.35 c 0,-0.58 0.5,-1.04 1.1,-1.04 0.61,0 1.1,0.46 1.1,1.04 0,0.57 -0.49,1.04 -1.1,1.04 -0.6,0 -1.1,-0.47 -1.1,-1.04" style="fill:#fff"/><path id="path5356" d="m 266.66,215.07 2.36,0.27 c 0.6,0.07 1.17,-0.33 1.24,-0.9 0.07,-0.57 -0.36,-1.09 -0.96,-1.15 l -2.37,-0.28 -2.42,-0.28 c -0.61,-0.07 -1.15,0.33 -1.22,0.9 -0.08,0.57 0.36,1.09 0.96,1.16 l 2.41,0.28" style="fill:#058e6e"/><path id="path5358" d="m 274.07,215.28 c 0,-0.58 0.49,-1.04 1.1,-1.04 0.61,0 1.1,0.46 1.1,1.04 0,0.57 -0.49,1.04 -1.1,1.04 -0.61,0 -1.1,-0.47 -1.1,-1.04" style="fill:#fff"/><path id="path5360" d="m 283.57,217.16 -1.21,-1.59 -3.37,0.43 2.69,1.96 1.89,-0.8" style="fill:#ad1519"/></g></g><g id="shield" style="stroke-width:.51999998"><g id="Granada"><path id="path5364" d="m 250.49,344.33 c -13.08,0 -26.05,-3.2 -36.95,-8.54 -8.03,-3.98 -13.36,-12 -13.36,-21.19 l 0,-33.3 100.42,0 0,33.3 c 0,9.19 -5.32,17.21 -13.36,21.19 -10.9,5.34 -23.66,8.54 -36.75,8.54 z" style="fill:#ccc"/><path id="path5366" d="m 252.91,329.55 c 2.09,0.63 3.15,2.19 3.15,4.01 0,2.38 -2.3,4.18 -5.3,4.18 -2.99,0 -5.42,-1.8 -5.42,-4.18 0,-1.79 1,-3.8 3.08,-3.94 0,0 -0.06,-0.19 -0.24,-0.5 -0.22,-0.23 -0.64,-0.66 -0.64,-0.66 0,0 0.79,-0.15 1.25,0.02 0.46,0.18 0.77,0.47 0.77,0.47 0,0 0.21,-0.43 0.52,-0.76 0.3,-0.33 0.7,-0.53 0.7,-0.53 0,0 0.46,0.38 0.61,0.64 0.15,0.27 0.25,0.59 0.25,0.59 0,0 0.42,-0.35 0.79,-0.49 0.37,-0.15 0.84,-0.26 0.84,-0.26 0,0 -0.13,0.46 -0.22,0.69 -0.09,0.23 -0.14,0.72 -0.14,0.72" style="fill:#ffd691"/><path id="path5368" d="m 250.32,340.32 c 0,0 -3.98,-2.68 -5.7,-3.04 -2.21,-0.47 -4.69,-0.09 -5.76,-0.15 0.03,0.03 1.29,0.93 1.84,1.48 0.55,0.55 2.39,1.65 3.43,1.91 3.22,0.81 6.19,-0.2 6.19,-0.2" style="fill:#058e6e"/><path id="path5370" d="m 251.46,340.56 c 0,0 2.54,-2.66 5.21,-3.02 3.15,-0.44 5.22,0.26 6.44,0.58 0.03,0 -1.01,0.49 -1.56,0.87 -0.55,0.37 -1.97,1.57 -4.14,1.59 -2.18,0.03 -4.58,-0.23 -4.97,-0.17 -0.4,0.06 -0.98,0.15 -0.98,0.15" style="fill:#058e6e"/><path id="path5372" d="m 250.69,337.28 c -1,-0.93 -1.62,-2.25 -1.62,-3.72 0,-1.46 0.62,-2.78 1.63,-3.71 0.99,0.93 1.61,2.25 1.61,3.71 0,1.47 -0.62,2.79 -1.62,3.72" style="fill:#ad1519"/><path id="path5374" d="m 249.68,342.71 c 0,0 0.61,-1.52 0.67,-2.83 0.06,-1.09 -0.15,-2.17 -0.15,-2.17 l 0.52,0 0.28,0 c 0,0 0.39,1.16 0.39,2.17 0,1.02 -0.18,2.37 -0.18,2.37 0,0 -0.55,0.08 -0.73,0.17 -0.19,0.09 -0.8,0.29 -0.8,0.29" style="fill:#058e6e"/></g><g id="Aragon" style="fill:#c8b100"><path id="path5377" d="m 250.32,314.57 c 0,13.16 -11.16,23.82 -25.05,23.82 -13.89,0 -25.15,-10.66 -25.15,-23.82 l 0,-33.35 50.2,0 0,33.35" style="fill:#ad1519"/><path id="path5379" d="m 200.03,314.12 c 0.15,7.02 2.95,12.25 5.73,15.67 l 0,-49.47 -5.66,0 -0.07,33.8 z"/><path id="path5381" d="m 211.08,334.23 c 1.57,0.83 3.72,2.22 6.03,2.77 l -0.15,-56.96 -5.88,0 0,54.19 z"/><path id="path5383" d="m 222.28,338.25 c 2.3,0.23 4.01,0.19 5.87,0 l 0,-58.21 -5.87,0 0,58.21 z"/><path id="path5385" d="m 233.32,337 c 2.3,-0.46 4.9,-1.89 6.03,-2.63 l 0,-54.33 -5.88,0 -0.15,56.96 z"/><path id="path5387" d="m 244.81,329.24 c 2.45,-2.18 4.75,-7.12 5.59,-12.76 l 0.14,-36.44 -5.87,0 0.14,49.2 z"/></g><g id="Navarre"><path id="path5390" d="m 300.65,281.22 0,33.35 c 0,13.16 -11.28,23.82 -25.17,23.82 -13.9,0 -25.16,-10.66 -25.16,-23.82 l 0,-33.35 50.33,0" style="fill:#ad1519"/><path id="chains_half" d="m 272.71,306.14 c 0.05,-0.14 0.12,-0.27 0.19,-0.4 l -4.26,-4.74 -1.67,0.72 -3.06,-3.39 1,-1.46 -5.34,-5.99 c -0.07,0.02 -0.2,0.02 -0.27,0.04 l 0.03,4.02 1.75,0.5 0,4.46 -1.75,0.48 -0.03,4.08 c 0.84,0.26 1.48,0.88 1.74,1.67 l 3.21,0.01 0.51,-1.67 4.72,0 0.5,1.67 z m -6.98,-18.5 0,1.61 2.76,0 0,-1.61 z m -7.3,20.37 c 0.64,0 1.16,-0.49 1.16,-1.1 0,-0.61 -0.52,-1.11 -1.16,-1.11 -0.65,0 -1.17,0.5 -1.17,1.11 0,0.61 0.52,1.1 1.17,1.1 z m 15.99,-9.73 -1.76,-0.48 0,-4.46 1.76,-0.5 -0.01,-1.92 c -0.85,-0.25 -1.51,-0.87 -1.79,-1.67 l -2.68,0 -0.51,1.67 -4.71,0 -0.51,-1.67 -3.09,0 c -0.08,0.22 -0.17,0.42 -0.29,0.61 l 5.38,5.96 1.67,-0.71 3.06,3.4 -1,1.45 4.18,4.64 c 0.09,-0.04 0.18,-0.08 0.28,-0.12 z m -7.25,-1.39 -1.29,1.04 1.77,1.98 1.29,-1.05 z m 8.00432,36.1859 c -1.23998,-0.065 -2.25509,-0.9022 -2.51432,-2.01593 -1.67,-0.23 -3.25,-0.66 -4.73,-1.3 l 0.84,-1.43 c 1.29,0.55 2.66,0.91 4.08,1.11 0.31,-0.66 0.86,-1.16 1.58,-1.4 l 0.01,-5.62 -1.76,-0.49 0,-4.46 1.76,-0.48 0,-7.64 c -0.07,-0.02 -0.13,-0.05 -0.2,-0.09 l -3.98,4.42 1,1.44 -3.06,3.4 -1.67,-0.71 -3.3,3.67 c 0.57,0.87 0.55,2 -0.11,2.85 0.94,1.05 2.03,1.98 3.24,2.75 l -0.84,1.44 c -1.42,-0.89 -2.7,-1.99 -3.79,-3.22 -0.87,0.26 -1.86,0.11 -2.6,-0.5 -1.15,-0.93 -1.29,-2.56 -0.3,-3.64 l 0.14,-0.16 c -0.69,-1.56 -1.16,-3.24 -1.32,-5 l 1.71,0.01 c 0.14,1.5 0.51,2.93 1.09,4.27 0.49,-0.06 1,-0.01 1.46,0.16 l 3.32,-3.68 -1,-1.45 3.06,-3.4 1.67,0.72 3.99,-4.43 c -0.09,-0.14 -0.15,-0.29 -0.21,-0.46 l -2.76,0.01 -0.5,1.67 -4.72,0 -0.51,-1.67 -3.24,-0.01 c -0.27,0.76 -0.9,1.36 -1.69,1.62 l -0.01,4.04 -1.71,-0.01 0,-4.01 c -1.1,-0.33 -1.91,-1.31 -1.91,-2.47 0,-1.15 0.82,-2.15 1.92,-2.48 l 0.01,-4.05 -1.76,-0.48 0,-4.46 1.76,-0.5 0,-4.05 c -1.08,-0.35 -1.84,-1.32 -1.84,-2.45 0,-1.43 1.22,-2.58 2.73,-2.58 1.22,0 2.25,0.74 2.61,1.78 l 3.09,0 0.51,-1.67 4.71,0 0.51,1.67 2.68,0 c 0.35692,-1.0311 1.36258,-1.76731 2.55896,-1.77984 l 0.0711,8.36984 -0.85,0 0,2.61 0.845,0 -0.0214,21.59 -0.7836,0 0,2.61 0.77946,0 z m -5.914,-18.306 -1.29,-1.04 -1.78,1.98 1.29,1.04 z m -9.96,-18.44 -1.69,0 -0.01,2.61 1.7,0 z m 9.16,11.41 0,-1.6 -2.85,0 0,1.6 z m -10.6,9.69 -1.76,-0.39 -0.25,-4.45 1.75,-0.58 0,2.56 c 0,0.99 0.09,1.92 0.26,2.86 z m 1.46,-5.52 1.75,0.41 c 0,0 0.09,2.87 0.05,2.22 -0.04,-0.74 0.19,2.24 0.19,2.24 l -1.76,0.58 c -0.18,-0.9 -0.24,-1.84 -0.24,-2.79 z m 10.81,16.93 0.39,-1.7 c -1.52,-0.48 -2.93,-1.18 -4.17,-2.09 l -1.26,1.11 c 1.48,1.15 3.19,2.08 5.04,2.68 z m -0.85,1.44 -1.3,1.22 c -1.47,-0.54 -2.86,-1.26 -4.12,-2.11 l 0.38,-1.77 c 1.5,1.13 3.21,2.03 5.04,2.66 z" style="fill:#c8b100;stroke:#c8b100;stroke-width:.25999999"/><use id="use5393" width="100%" height="100%" x="0" y="0" transform="matrix(-1,0,0,1,550.43,0)" xlink:href="#chains_half"/><path id="path5395" d="m 272.59,306.94 c 0,-1.44 1.23,-2.6 2.74,-2.6 1.51,0 2.73,1.16 2.73,2.6 0,1.43 -1.22,2.58 -2.73,2.58 -1.51,0 -2.74,-1.15 -2.74,-2.58" style="fill:#058e6e;stroke:none"/></g><g id="Castile" style="fill:#c8b100;stroke-width:.46000001"><path id="path5398" d="m 200.12,281.25 50.18,0 0,-55.72 -50.18,0 0,55.72 z" style="fill:#ad1519;stroke-width:.51999998"/><path id="path5400" d="m 217.34,238.41 -0.92,0 0,-0.92 -1.62,0 0,3.69 1.62,0 0,2.55 -3.47,0 0,7.39 1.85,0 0,14.79 -3.7,0 0,7.63 28.42,0 0,-7.63 -3.69,0 0,-14.79 1.85,0 0,-7.39 -3.47,0 0,-2.55 1.62,0 0,-3.69 -1.62,0 0,0.92 -0.93,0 0,-0.92 -1.61,0 0,0.92 -1.16,0 0,-0.92 -1.62,0 0,3.69 1.62,0 0,2.55 -3.46,0 0,-8.09 1.84,0 0,-3.7 -1.84,0 0,0.93 -0.93,0 0,-0.93 -1.62,0 0,0.93 -0.92,0 0,-0.93 -1.85,0 0,3.7 1.85,0 0,8.09 -3.47,0 0,-2.55 1.62,0 0,-3.69 -1.62,0 0,0.92 -0.92,0 0,-0.92 -1.85,0 0,0.92 z m -6.24,35.13 28.42,0 m -28.42,-1.85 28.42,0 m -28.42,-1.85 28.42,0 m -28.42,-1.85 28.42,0 m -28.42,-2.08 28.42,0 m -24.72,-1.62 21.03,0 m -21.03,-1.85 21.03,0 m -21.03,-2.08 21.03,0 m -21.03,-1.84 21.03,0 m -21.03,-1.85 21.03,0 m -21.03,-1.85 21.03,0 m -21.03,-1.85 21.03,0 m -22.88,-1.85 24.73,0 m -24.73,-1.85 24.73,0 m -24.73,-1.85 24.73,0 m -24.73,-1.84 24.73,0 m -21.26,-1.85 17.79,0 m -10.63,-1.85 3.47,0 m -3.47,-1.85 3.47,0 m -3.47,-1.85 3.47,0 m -3.47,-1.85 3.47,0 m -5.32,-2.31 7.16,0 m -12.47,7.86 3.69,0 m -5.31,-2.31 6.93,0 m -6.93,33.97 0,-1.85 m 0,-1.85 0,-1.85 m -1.85,1.85 0,1.85 m 3.47,0 0,-1.85 m 1.84,3.7 0,-1.85 m 0,-1.85 0,-1.85 m 0,-2.08 0,-1.62 m 0,-1.85 0,-2.08 m -1.84,7.63 0,-2.08 m -3.47,2.08 0,-2.08 m 7.16,0 0,2.08 m 1.62,-2.08 0,-1.62 m -5.31,-1.85 0,1.85 m 3.69,-1.85 0,1.85 m 3.47,-1.85 0,1.85 m -1.85,-1.85 0,-2.08 m 1.85,-1.84 0,1.84 m 0,-5.54 0,1.85 m -1.85,-3.7 0,1.85 m 1.85,-3.7 0,1.85 m -3.47,-1.85 0,1.85 m -3.69,-1.85 0,1.85 m -1.62,-3.7 0,1.85 m 3.46,-1.85 0,1.85 m 3.47,-1.85 0,1.85 m 1.85,-3.7 0,1.85 m -3.47,-1.85 0,1.85 m -3.69,-1.85 0,1.85 m -1.62,-3.69 0,1.84 m 6.93,-1.84 0,1.84 m -3.47,-5.54 0,1.85 m 15.95,-1.85 -3.7,0 m 5.32,-2.31 -6.94,0 m 6.94,33.97 0,-1.85 m 0,-1.85 0,-1.85 m 1.85,1.85 0,1.85 m -3.47,0 0,-1.85 m -1.85,3.7 0,-1.85 m 0,-1.85 0,-1.85 m 0,-2.08 0,-1.62 m 0,-1.85 0,-2.08 m 1.85,7.63 0,-2.08 m 3.47,2.08 0,-2.08 m -7.17,0 0,2.08 m -1.62,-2.08 0,-1.62 m 5.32,-1.85 0,1.85 m -3.7,-1.85 0,1.85 m -3.46,-1.85 0,1.85 m 1.84,-1.85 0,-2.08 m -1.84,-1.84 0,1.84 m 0,-5.54 0,1.85 m 1.84,-3.7 0,1.85 m -1.84,-3.7 0,1.85 m 3.46,-1.85 0,1.85 m 3.7,-1.85 0,1.85 m 1.62,-3.7 0,1.85 m -3.47,-1.85 0,1.85 m -3.47,-1.85 0,1.85 m -1.84,-3.7 0,1.85 m 3.46,-1.85 0,1.85 m 3.7,-1.85 0,1.85 m 1.62,-3.69 0,1.84 m -6.94,-1.84 0,1.84 m 3.47,-5.54 0,1.85 m -7.16,18.71 0,-2.08 m 0,-5.54 0,-1.85 m 0,5.55 0,-1.85 m 0,-5.55 0,-1.85 m 0,-1.85 0,-1.84 m 0,-3.7 0,-1.85 m 0,-1.85 0,-1.85 m -8.78,4.85 3.69,0 m 3.47,-5.54 3.47,0 m 3.46,5.54 3.7,0"/><path id="path5402" d="m 230.05,273.54 0,-4.86 c 0,-0.92 -0.46,-3.7 -4.85,-3.7 -4.16,0 -4.62,2.78 -4.62,3.7 l 0,4.86 9.47,0 z"/><path id="path5404" d="m 222.19,268.91 -2.31,-0.23 c 0,-0.92 0.23,-2.31 0.93,-2.77 l 2.08,1.62 c -0.23,0.23 -0.7,0.92 -0.7,1.38 z"/><path id="path5406" d="m 226.12,266.6 1.16,-2.08 c -0.46,-0.23 -1.39,-0.46 -2.08,-0.46 -0.46,0 -1.39,0.23 -1.85,0.46 l 1.15,2.08 1.62,0 z"/><path id="path5408" d="m 228.43,268.91 2.31,-0.23 c 0,-0.92 -0.23,-2.31 -0.92,-2.77 l -2.08,1.62 c 0.23,0.23 0.69,0.92 0.69,1.38 z"/><path id="path5410" d="m 221.73,260.83 0,-5.09 c 0,-1.38 -0.92,-2.54 -2.54,-2.54 -1.62,0 -2.54,1.16 -2.54,2.54 l 0,5.09 5.08,0 z"/><path id="path5412" d="m 228.89,260.83 0,-5.09 c 0,-1.38 0.93,-2.54 2.55,-2.54 1.61,0 2.54,1.16 2.54,2.54 l 0,5.09 -5.09,0 z"/><path id="path5414" d="m 220.11,248.35 0.23,-4.62 -4.39,0 0.47,4.62 3.69,0 z"/><path id="path5416" d="m 227.05,248.35 0.46,-4.62 -4.39,0 0.23,4.62 3.7,0 z"/><path id="path5418" d="m 230.51,248.35 -0.46,-4.62 4.62,0 -0.46,4.62 -3.7,0 z"/><g id="g5420" style="fill:#0039f0;stroke:none"><path id="path5422" d="m 228.43,273.54 0,-4.16 c 0,-0.7 -0.46,-2.78 -3.23,-2.78 -2.54,0 -3.01,2.08 -3.01,2.78 l 0,4.16 6.24,0 z"/><path id="path5424" d="m 221.27,260.36 0,-4.39 c 0,-1.15 -0.69,-2.31 -2.08,-2.31 -1.39,0 -2.08,1.16 -2.08,2.31 l 0,4.39 4.16,0 z"/><path id="path5426" d="m 229.36,260.36 0,-4.39 c 0,-1.15 0.69,-2.31 2.08,-2.31 1.38,0 2.08,1.16 2.08,2.31 l 0,4.39 -4.16,0 z"/></g></g><g id="Leon"><path id="path5429" d="m 250.28,281.25 50.32,0 0,-55.72 -50.32,0 0,55.72 z" style="fill:#ccc"/><path id="path5431" d="m 275.93,239.26 0.05,-0.62 0.09,-0.34 c 0,0 -1.61,0.13 -2.46,-0.11 -0.85,-0.24 -1.61,-0.59 -2.4,-1.25 -0.79,-0.68 -1.1,-1.1 -1.67,-1.18 -1.36,-0.22 -2.4,0.4 -2.4,0.4 0,0 1.02,0.37 1.78,1.31 0.76,0.94 1.59,1.41 1.95,1.53 0.59,0.18 2.66,0.05 3.22,0.07 0.57,0.03 1.84,0.19 1.84,0.19 z" style="fill:#db4446;stroke-width:.38999999"/><g id="g5433" style="fill:none;stroke-width:.38999999"><path id="path5435" d="m 283.46,237 c 0,0 0.01,0.72 0.08,1.4 0.06,0.67 -0.22,1.24 -0.11,1.61 0.11,0.37 0.16,0.66 0.3,0.93 0.14,0.26 0.21,0.94 0.21,0.94 0,0 -0.38,-0.28 -0.74,-0.54 -0.35,-0.27 -0.6,-0.44 -0.6,-0.44 0,0 0.07,0.72 0.1,1.03 0.04,0.31 0.22,0.89 0.51,1.24 0.29,0.33 0.87,0.89 1.05,1.33 0.18,0.45 0.14,1.44 0.14,1.44 0,0 -0.46,-0.75 -0.87,-0.89 -0.39,-0.14 -1.26,-0.62 -1.26,-0.62 0,0 0.79,0.79 0.79,1.55 0,0.75 -0.32,1.6 -0.32,1.6 0,0 -0.36,-0.68 -0.83,-1.12 -0.47,-0.45 -1.13,-0.9 -1.13,-0.9 0,0 0.52,1.17 0.52,1.95 0,0.79 -0.15,2.47 -0.15,2.47 0,0 -0.39,-0.64 -0.79,-0.96 -0.4,-0.31 -0.87,-0.58 -1.02,-0.78 -0.14,-0.21 0.48,0.64 0.54,1.16 0.07,0.51 0.32,2.35 1.92,4.69 0.94,1.37 2.39,3.77 5.5,2.98 3.11,-0.78 1.96,-4.97 1.3,-6.92 -0.65,-1.95 -0.98,-4.11 -0.94,-4.87 0.04,-0.75 0.58,-2.97 0.51,-3.39 -0.07,-0.41 -0.24,-2 0.14,-3.28 0.4,-1.33 0.73,-1.85 0.95,-2.4 0.21,-0.55 0.39,-0.86 0.46,-1.34 0.07,-0.48 0.07,-1.37 0.07,-1.37 0,0 0.58,1.06 0.73,1.44 0.14,0.38 0.14,1.5 0.14,1.5 0,0 0.11,-1.12 0.98,-1.67 0.87,-0.55 1.88,-1.13 2.13,-1.44 0.25,-0.31 0.33,-0.51 0.33,-0.51 0,0 -0.08,1.92 -0.62,2.67 -0.36,0.49 -1.77,2.09 -1.77,2.09 0,0 0.73,-0.28 1.23,-0.3 0.51,-0.04 0.87,0 0.87,0 0,0 -0.62,0.48 -1.41,1.64 -0.8,1.16 -0.47,1.26 -1.05,2.22 -0.58,0.96 -1.05,1 -1.78,1.58 -1.08,0.87 -0.5,4.34 -0.36,4.86 0.15,0.51 2.03,4.76 2.07,5.79 0.03,1.03 0.21,3.33 -1.6,4.8 -1.16,0.95 -3.07,0.96 -3.51,1.23 -0.43,0.28 -1.29,1.13 -1.29,2.91 0,1.79 0.64,2.06 1.15,2.51 0.51,0.44 1.16,0.2 1.3,0.55 0.15,0.34 0.22,0.54 0.44,0.75 0.21,0.2 0.36,0.44 0.29,0.82 -0.08,0.38 -0.91,1.23 -1.2,1.85 -0.29,0.61 -0.87,2.23 -0.87,2.47 0,0.24 -0.07,0.99 0.18,1.37 0,0 0.91,1.06 0.29,1.26 -0.4,0.14 -0.78,-0.25 -0.97,-0.2 -0.54,0.14 -0.83,0.47 -0.98,0.45 -0.36,-0.07 -0.36,-0.25 -0.4,-0.76 -0.03,-0.51 -0.01,-0.72 -0.17,-0.72 -0.22,0 -0.33,0.18 -0.37,0.45 -0.04,0.27 -0.04,0.89 -0.29,0.89 -0.25,0 -0.61,-0.45 -0.83,-0.55 -0.22,-0.1 -0.83,-0.2 -0.87,-0.48 -0.03,-0.27 0.36,-0.85 0.76,-0.96 0.4,-0.1 0.76,-0.3 0.51,-0.51 -0.26,-0.2 -0.51,-0.2 -0.76,0 -0.25,0.21 -0.79,0.04 -0.76,-0.27 0.04,-0.31 0.11,-0.69 0.07,-0.86 -0.03,-0.17 -0.47,-0.51 0.1,-0.82 0.59,-0.31 0.84,0.27 1.42,0.17 0.58,-0.1 0.86,-0.31 1.08,-0.65 0.22,-0.34 0.18,-1.06 -0.22,-1.5 -0.39,-0.45 -0.79,-0.52 -0.94,-0.8 -0.14,-0.27 -0.36,-0.92 -0.36,-0.92 0,0 0.11,1.2 0.04,1.37 -0.07,0.17 -0.04,0.89 -0.04,0.89 0,0 -0.39,-0.45 -0.72,-0.79 -0.32,-0.34 -0.65,-1.37 -0.65,-1.37 0,0 -0.03,0.96 -0.03,1.34 0,0.37 0.43,0.72 0.29,0.86 -0.15,0.13 -0.83,-0.72 -1.02,-0.86 -0.18,-0.14 -0.76,-0.58 -1.01,-1.06 -0.25,-0.48 -0.44,-1.16 -0.51,-1.41 -0.07,-0.24 -0.19,-1.31 -0.07,-1.58 0.18,-0.4 0.47,-1.13 0.47,-1.13 l -1.41,0 c -0.76,0 -1.3,-0.23 -1.59,0.28 -0.29,0.51 -0.15,1.54 0.21,2.88 0.37,1.33 0.58,1.98 0.48,2.22 -0.11,0.24 -0.58,0.79 -0.76,0.89 -0.19,0.11 -0.69,0.07 -0.91,-0.03 -0.21,-0.1 -0.57,-0.27 -1.26,-0.27 -0.69,0 -1.12,0.03 -1.37,-0.03 -0.26,-0.07 -0.88,-0.38 -1.17,-0.31 -0.29,0.07 -0.79,0.32 -0.65,0.72 0.22,0.61 -0.21,0.75 -0.51,0.72 -0.29,-0.04 -0.53,-0.14 -0.9,-0.24 -0.36,-0.11 -0.9,0 -0.83,-0.42 0.07,-0.41 0.22,-0.44 0.4,-0.74 0.18,-0.32 0.25,-0.52 0.04,-0.54 -0.25,-0.02 -0.51,-0.05 -0.7,0.11 -0.2,0.16 -0.51,0.51 -0.76,0.38 -0.26,-0.14 -0.46,-0.43 -0.46,-1.08 0,-0.64 -0.68,-1.2 -0.05,-1.17 0.62,0.03 1.41,0.48 1.55,0.13 0.14,-0.35 0.06,-0.51 -0.28,-0.78 -0.34,-0.27 -0.76,-0.43 -0.31,-0.77 0.45,-0.35 0.56,-0.35 0.74,-0.54 0.17,-0.18 0.41,-0.79 0.73,-0.64 0.62,0.3 0.02,0.73 0.65,1.42 0.62,0.69 1.01,0.94 2.06,0.83 1.04,-0.11 1.33,-0.24 1.33,-0.54 0,-0.29 -0.09,-0.82 -0.12,-1.04 -0.02,-0.21 0.15,-0.99 0.15,-0.99 0,0 -0.48,0.3 -0.63,0.59 -0.13,0.29 -0.42,0.8 -0.42,0.8 0,0 -0.11,-0.6 -0.08,-1.09 0.02,-0.29 0.12,-0.79 0.11,-0.89 -0.03,-0.27 -0.23,-0.94 -0.23,-0.94 0,0 -0.16,0.73 -0.28,0.94 -0.11,0.21 -0.16,1.07 -0.16,1.07 0,0 -0.67,-0.58 -0.48,-1.55 0.13,-0.75 -0.12,-1.74 0.11,-2.06 0.22,-0.33 0.75,-1.64 2.06,-1.69 1.3,-0.05 2.31,0.05 2.77,0.03 0.45,-0.03 2.06,-0.33 2.06,-0.33 0,0 -2.97,-1.52 -3.64,-1.98 -0.68,-0.45 -1.73,-1.63 -2.07,-2.16 -0.34,-0.54 -0.65,-1.58 -0.65,-1.58 0,0 -0.53,0.02 -1.02,0.29 -0.48,0.27 -0.96,0.67 -1.24,0.99 -0.28,0.32 -0.73,1.05 -0.73,1.05 0,0 0.08,-0.94 0.08,-1.23 0,-0.29 -0.06,-0.86 -0.06,-0.86 0,0 -0.33,1.28 -1.01,1.76 -0.68,0.49 -1.47,1.15 -1.47,1.15 0,0 0.08,-0.71 0.08,-0.88 0,-0.16 0.17,-0.99 0.17,-0.99 0,0 -0.48,0.72 -1.21,0.86 -0.74,0.13 -1.81,0.11 -1.9,0.56 -0.08,0.45 0.2,1.07 0.03,1.39 -0.17,0.32 -0.54,0.54 -0.54,0.54 0,0 -0.42,-0.35 -0.79,-0.38 -0.36,-0.03 -0.71,0.16 -0.71,0.16 0,0 -0.31,-0.4 -0.19,-0.67 0.11,-0.26 0.67,-0.66 0.54,-0.83 -0.15,-0.16 -0.6,0.06 -0.88,0.19 -0.28,0.14 -0.88,0.27 -0.82,-0.19 0.05,-0.45 0.2,-0.72 0.05,-1.04 -0.14,-0.32 -0.05,-0.53 0.18,-0.61 0.22,-0.08 1.12,0.02 1.21,-0.19 0.08,-0.21 -0.22,-0.48 -0.82,-0.61 -0.59,-0.14 -0.88,-0.49 -0.57,-0.78 0.32,-0.3 0.4,-0.38 0.54,-0.64 0.14,-0.27 0.2,-0.76 0.74,-0.51 0.53,0.24 0.42,0.83 0.99,1.01 0.56,0.19 1.89,-0.08 2.17,-0.24 0.28,-0.16 1.19,-0.83 1.5,-0.99 0.31,-0.15 1.61,-1.12 1.61,-1.12 0,0 -0.76,-0.53 -1.05,-0.8 -0.28,-0.27 -0.78,-0.91 -1.04,-1.05 -0.25,-0.13 -1.5,-0.61 -1.92,-0.64 -0.42,-0.02 -1.72,-0.48 -1.72,-0.48 0,0 0.59,-0.19 0.79,-0.35 0.19,-0.16 0.64,-0.56 0.87,-0.53 0.22,0.02 0.28,0.02 0.28,0.02 0,0 -1.21,-0.05 -1.47,-0.13 -0.25,-0.08 -0.99,-0.54 -1.27,-0.54 -0.28,0 -0.84,0.11 -0.84,0.11 0,0 0.76,-0.48 1.38,-0.59 0.62,-0.1 1.1,-0.08 1.1,-0.08 0,0 -0.96,-0.27 -1.19,-0.58 -0.22,-0.33 -0.45,-0.8 -0.62,-1.02 -0.17,-0.21 -0.28,-0.56 -0.59,-0.59 -0.31,-0.03 -0.85,0.38 -1.16,0.35 -0.31,-0.03 -0.54,-0.22 -0.57,-0.67 -0.02,-0.46 0,-0.3 -0.1,-0.54 -0.12,-0.24 -0.57,-0.8 -0.15,-0.93 0.43,-0.14 1.33,0.08 1.42,-0.08 0.08,-0.16 -0.48,-0.65 -0.85,-0.83 -0.37,-0.19 -0.96,-0.51 -0.65,-0.78 0.31,-0.26 0.62,-0.37 0.79,-0.61 0.17,-0.24 0.37,-0.91 0.74,-0.7 0.36,0.21 0.87,1.26 1.16,1.18 0.28,-0.08 0.3,-0.83 0.25,-1.15 -0.06,-0.32 0,-0.88 0.28,-0.83 0.28,0.05 0.51,0.43 0.96,0.46 0.45,0.02 1.13,-0.11 1.07,0.21 -0.05,0.32 -0.31,0.71 -0.62,1.06 -0.3,0.36 -0.45,1.05 -0.25,1.5 0.2,0.46 0.71,1.19 1.16,1.48 0.45,0.29 1.3,0.51 1.84,0.85 0.53,0.35 1.78,1.34 2.2,1.45 0.42,0.11 0.85,0.32 0.85,0.32 0,0 0.48,-0.21 1.13,-0.21 0.65,0 2.14,0.1 2.71,-0.14 0.57,-0.24 1.3,-0.64 1.08,-1.15 -0.23,-0.51 -1.47,-0.96 -1.36,-1.36 0.11,-0.4 0.57,-0.43 1.33,-0.46 0.76,-0.02 1.8,0.14 2,-0.94 0.2,-1.06 0.26,-1.68 -0.81,-1.92 -1.08,-0.24 -1.87,-0.27 -2.07,-1.04 -0.2,-0.78 -0.39,-0.97 -0.17,-1.18 0.23,-0.21 0.62,-0.32 1.41,-0.37 0.8,-0.06 1.7,-0.06 1.96,-0.25 0.25,-0.18 0.3,-0.69 0.61,-0.91 0.31,-0.21 1.53,-0.4 1.53,-0.4 0,0 1.46,0.71 2.8,1.71 1.21,0.9 2.3,2.23 2.3,2.23" style="fill:#ed72aa"/><path id="path5437" d="m 269,243.39 c 0,0 -0.8,0.23 -1.1,0.67 -0.37,0.53 -0.34,1.07 -0.34,1.07 0,0 0.68,-0.56 1.56,-0.33 0.87,0.24 0.96,0.33 1.33,0.3 0.37,-0.03 1.27,-0.35 1.27,-0.35 0,0 -0.74,0.86 -0.65,1.45 0.08,0.58 0.19,0.85 0.17,1.15 -0.06,0.72 -0.6,1.61 -0.6,1.61 0,0 0.31,-0.19 1.05,-0.35 0.73,-0.16 1.36,-0.51 1.75,-0.81 0.39,-0.29 0.9,-1.02 0.9,-1.02 0,0 -0.16,1 0,1.42 0.17,0.44 0.23,1.67 0.23,1.67 0,0 0.47,-0.42 0.85,-0.62 0.19,-0.11 0.7,-0.38 0.9,-0.7 0.14,-0.22 0.32,-1.06 0.32,-1.06 0,0 0.11,0.9 0.39,1.34 0.28,0.42 0.7,1.74 0.7,1.74 0,0 0.29,-0.86 0.6,-1.21 0.31,-0.35 0.68,-0.8 0.7,-1.07 0.03,-0.27 -0.08,-0.85 -0.08,-0.85 l 0.39,0.85 m -11.41,0.61 c 0,0 0.48,-0.83 0.93,-1.1 0.46,-0.26 1.08,-0.74 1.25,-0.8 0.16,-0.05 0.9,-0.46 0.9,-0.46 m 0.99,5.17 c 0,0 1.09,-0.55 1.41,-0.75 0.68,-0.4 1.16,-1.12 1.16,-1.12"/><path id="path5439" d="m 282.57,240.9 c 0,0 -0.34,-0.48 -0.42,-0.65 -0.09,-0.15 -0.23,-0.48 -0.23,-0.48" style="fill:none;stroke-width:.25999999"/><path id="path5441" d="m 278.33,257.41 c 0,0 2.04,1.26 1.98,2.31 -0.06,1.04 -1.13,2.41 -1.13,2.41" style="fill:none"/></g><path id="path5443" d="m 273.05,236.24 c 0,0 -0.17,-0.48 -0.2,-0.62 -0.03,-0.13 -0.12,-0.29 -0.12,-0.29 0,0 0.88,0 0.85,0.27 -0.02,0.27 -0.28,0.27 -0.34,0.37 -0.05,0.11 -0.19,0.27 -0.19,0.27 z" style="fill:#000;stroke-width:.25999999"/><path id="path5445" d="M 277.06,234.85 277,234.42 c 0,0 0.77,0 1.13,0.26 0.57,0.4 0.93,1.02 0.91,1.05 -0.1,0.09 -0.54,-0.27 -0.85,-0.37 0,0 -0.23,0.05 -0.45,0.05 -0.23,0 -0.34,-0.11 -0.37,-0.21 -0.03,-0.12 0.03,-0.3 0.03,-0.3 l -0.34,-0.05 z" style="fill:#000;stroke-width:.05"/><g id="g5447" style="fill:#000;stroke-width:.25999999"><path id="path5449" d="m 273.08,240.14 0.33,-0.53 0.34,0.49 -0.67,0.04"/><path id="path5451" d="m 273.89,240.12 0.4,-0.53 0.43,0.48 -0.83,0.05"/><path id="path5453" d="m 273.53,236.83 0.82,0.29 -0.74,0.38 -0.08,-0.67"/><path id="path5455" d="m 274.52,237.1 0.73,0.18 -0.59,0.46 -0.14,-0.64"/></g><g id="g5457" style="fill:#db4446;stroke-width:.38999999"><path id="path5459" d="m 261.88,236.08 c 0,0 0.48,0.34 0.85,0.4 0.37,0.05 0.76,0.05 0.82,0.05 0.05,0 0.17,-0.54 0.11,-0.91 -0.2,-1.2 -1.3,-1.47 -1.3,-1.47 0,0 0.33,0.73 0.17,1.07 -0.23,0.48 -0.65,0.86 -0.65,0.86 z"/><path id="path5461" d="m 259.59,237.12 c 0,0 -0.43,-0.77 -1.33,-0.67 -0.9,0.11 -1.5,0.81 -1.5,0.81 0,0 1,-0.03 1.25,0.13 0.37,0.24 0.48,0.86 0.48,0.86 0,0 0.54,-0.32 0.71,-0.54 0.16,-0.21 0.39,-0.59 0.39,-0.59 z"/><path id="path5463" d="m 258.49,240.25 c 0,0 -0.77,0.11 -1.19,0.59 -0.43,0.49 -0.36,1.4 -0.36,1.4 0,0 0.5,-0.54 0.95,-0.54 0.46,0 1.16,0.16 1.16,0.16 0,0 -0.22,-0.56 -0.22,-0.8 0,-0.24 -0.34,-0.81 -0.34,-0.81 z"/><path id="path5465" d="m 261.06,250.37 c 0,0 -0.42,-0.45 -1.16,-0.32 -0.74,0.14 -1.22,0.97 -1.22,0.97 0,0 0.63,-0.17 1,-0.08 0.36,0.08 0.62,0.45 0.62,0.45 0,0 0.34,-0.29 0.45,-0.45 0.11,-0.16 0.31,-0.57 0.31,-0.57 z"/><path id="path5467" d="m 260.21,253.34 c 0,0 -0.62,-0.1 -1.16,0.33 -0.53,0.43 -0.56,1.25 -0.56,1.25 0,0 0.51,-0.43 0.91,-0.37 0.39,0.05 0.87,0.27 0.87,0.27 0,0 0.08,-0.51 0.11,-0.64 0.09,-0.38 -0.17,-0.84 -0.17,-0.84 z"/><path id="path5469" d="m 261.66,256.08 c 0,0 -0.05,0.79 0.33,1.28 0.4,0.51 1.13,0.59 1.13,0.59 0,0 -0.24,-0.53 -0.28,-0.8 -0.06,-0.4 0.34,-0.75 0.34,-0.75 0,0 -0.37,-0.38 -0.73,-0.38 -0.37,0 -0.79,0.06 -0.79,0.06 z"/><path id="path5471" d="m 269,263.12 c 0,0 -0.51,-0.64 -1.21,-0.62 -0.71,0.03 -1.45,0.69 -1.45,0.69 0,0 0.88,-0.07 1.11,0.22 0.23,0.3 0.45,0.67 0.45,0.67 0,0 0.4,-0.21 0.57,-0.35 0.17,-0.13 0.53,-0.61 0.53,-0.61 z"/><path id="path5473" d="m 266.83,265.93 c 0,0 -0.93,-0.14 -1.39,0.35 -0.45,0.48 -0.42,1.36 -0.42,1.36 0,0 0.56,-0.61 1.07,-0.56 0.51,0.05 1.08,0.32 1.08,0.32 0,0 -0.09,-0.53 -0.15,-0.78 -0.05,-0.24 -0.19,-0.69 -0.19,-0.69 z"/><path id="path5475" d="m 268.84,268.9 c 0,0 -0.46,0.64 -0.12,1.15 0.34,0.51 1.05,0.75 1.05,0.75 0,0 -0.26,-0.37 -0.14,-0.8 0.09,-0.34 0.67,-0.8 0.67,-0.8 l -1.46,-0.3 z"/><path id="path5477" d="m 281.24,270.11 c 0,0 -0.81,-0.19 -1.27,0.08 -0.45,0.26 -0.82,1.39 -0.82,1.39 0,0 0.74,-0.62 1.28,-0.54 0.53,0.08 0.93,0.3 0.93,0.3 0,0 0.08,-0.46 0.02,-0.78 -0.03,-0.19 -0.14,-0.45 -0.14,-0.45 z"/><path id="path5479" d="m 281.64,273.1 c 0,0 -0.62,0.64 -0.4,1.18 0.23,0.54 0.62,1.1 0.62,1.1 0,0 -0.02,-0.8 0.23,-1.02 0.37,-0.32 1.05,-0.37 1.05,-0.37 0,0 -0.54,-0.48 -0.71,-0.54 -0.17,-0.05 -0.79,-0.35 -0.79,-0.35 z"/><path id="path5481" d="m 284.75,274.04 c 0,0 -0.31,0.78 0.28,1.28 0.59,0.52 1.11,0.57 1.11,0.57 0,0 -0.46,-0.81 -0.32,-1.23 0.15,-0.45 0.54,-0.72 0.54,-0.72 0,0 -0.74,-0.25 -0.85,-0.22 -0.11,0.02 -0.76,0.32 -0.76,0.32 z"/></g><g id="g5483" style="fill:#c8b100;stroke-width:.25999999"><path id="path5485" d="m 282.88,232.71 -0.29,0.02 c -0.01,0.03 -0.14,0.24 -0.26,0.35 -0.26,0.25 -0.65,0.28 -0.86,0.07 -0.11,-0.11 -0.16,-0.26 -0.14,-0.41 -0.17,0.09 -0.35,0.09 -0.51,-0.01 -0.26,-0.15 -0.32,-0.5 -0.14,-0.79 0.03,-0.06 0.06,-0.14 0.11,-0.18 l -0.02,-0.32 -0.35,0.08 -0.1,0.19 c -0.22,0.25 -0.54,0.31 -0.7,0.17 -0.08,-0.07 -0.14,-0.26 -0.13,-0.27 0,0.01 -0.09,0.09 -0.17,0.11 -0.54,0.13 -0.75,-1.05 -0.77,-1.35 l -0.17,0.25 c 0,0 0.16,0.7 0.08,1.3 -0.08,0.59 -0.29,1.19 -0.29,1.19 0.74,0.19 1.86,0.8 2.97,1.65 1.11,0.85 1.98,1.78 2.34,2.42 0,0 0.58,-0.32 1.18,-0.51 0.6,-0.19 1.36,-0.2 1.36,-0.2 l 0.22,-0.21 c -0.32,0.05 -1.58,0.1 -1.56,-0.43 0,-0.08 0.07,-0.18 0.08,-0.18 -0.01,0.01 -0.21,-0.01 -0.3,-0.06 -0.18,-0.13 -0.18,-0.43 0.02,-0.69 l 0.18,-0.13 0.01,-0.34 -0.34,0.05 c -0.03,0.04 -0.11,0.09 -0.15,0.13 -0.27,0.23 -0.65,0.25 -0.86,0.03 -0.13,-0.12 -0.17,-0.29 -0.11,-0.46 -0.16,0.04 -0.32,0.03 -0.45,-0.05 -0.26,-0.15 -0.31,-0.52 -0.11,-0.8 0.09,-0.14 0.28,-0.31 0.31,-0.32 l -0.07,-0.3 -0.01,0 z"/><g id="g5487" style="fill:#000;stroke-width:.05"><path id="path5489" d="m 280.63,233.4 c 0.05,-0.07 0.15,-0.06 0.23,0 0.08,0.06 0.1,0.16 0.06,0.21 -0.05,0.06 -0.15,0.06 -0.24,-0.01 -0.07,-0.05 -0.1,-0.15 -0.05,-0.2 z"/><path id="path5491" d="m 281.58,234.19 -0.33,-0.25 c -0.06,-0.04 -0.07,-0.12 -0.04,-0.16 0.04,-0.04 0.12,-0.04 0.18,0 l 0.33,0.26 0.33,0.25 c 0.05,0.04 0.08,0.12 0.04,0.16 -0.04,0.04 -0.12,0.04 -0.18,0 l -0.33,-0.26"/><path id="path5493" d="m 279.84,233 -0.26,-0.15 c -0.07,-0.04 -0.1,-0.12 -0.07,-0.17 0.03,-0.05 0.11,-0.06 0.17,-0.02 l 0.26,0.16 0.26,0.15 c 0.06,0.03 0.09,0.11 0.07,0.16 -0.03,0.05 -0.11,0.06 -0.17,0.02 L 279.84,233"/><path id="path5495" d="m 278.8,232.29 c 0.05,-0.06 0.16,-0.06 0.24,0 0.08,0.07 0.1,0.16 0.05,0.22 -0.05,0.05 -0.15,0.05 -0.23,-0.01 -0.08,-0.06 -0.1,-0.15 -0.06,-0.21 z"/><path id="path5497" d="m 282.63,234.92 c 0.05,-0.05 0.03,-0.14 -0.05,-0.21 -0.08,-0.06 -0.19,-0.06 -0.24,0 -0.04,0.05 -0.02,0.15 0.06,0.21 0.08,0.06 0.18,0.06 0.23,0 z"/><path id="path5499" d="m 283.2,235.58 0.22,0.21 c 0.05,0.05 0.13,0.07 0.18,0.03 0.04,-0.04 0.04,-0.11 -0.01,-0.16 l -0.21,-0.21 -0.22,-0.21 c -0.05,-0.05 -0.14,-0.07 -0.18,-0.03 -0.05,0.03 -0.04,0.11 0.01,0.16 l 0.21,0.21"/><path id="path5501" d="m 284.15,236.39 c 0.05,-0.06 0.03,-0.15 -0.05,-0.21 -0.08,-0.07 -0.18,-0.07 -0.23,-0.01 -0.05,0.06 -0.03,0.15 0.05,0.22 0.08,0.05 0.18,0.06 0.23,0 z"/></g><path id="path5503" d="m 281.4,230.36 -0.59,0.01 -0.11,0.87 0.06,0.14 0.15,-0.01 0.76,-0.51 -0.27,-0.5"/><path id="path5505" d="m 281.4,230.36 -0.59,0.01 -0.11,0.87 0.06,0.14 0.15,-0.01 0.76,-0.51 -0.27,-0.5"/><path id="path5507" d="m 279.8,230.84 -0.02,0.54 0.92,0.12 0.15,-0.07 -0.02,-0.15 -0.53,-0.71 -0.5,0.27"/><path id="path5509" d="m 281.7,231.92 -0.49,0.27 -0.54,-0.71 -0.01,-0.15 0.14,-0.06 0.93,0.11 -0.03,0.54"/><path id="path5511" d="m 280.51,231.25 c 0.08,-0.13 0.26,-0.17 0.39,-0.09 0.14,0.07 0.18,0.24 0.1,0.37 -0.08,0.13 -0.26,0.17 -0.39,0.09 -0.14,-0.08 -0.18,-0.24 -0.1,-0.37 z"/><path id="path5513" d="m 278.36,230.35 c -0.02,0.01 -0.13,-0.46 -0.26,-0.71 -0.08,-0.19 -0.39,-0.43 -0.39,-0.43 0.03,-0.05 0.42,-0.19 0.87,0.09 0.38,0.31 -0.03,0.87 -0.03,0.87 0,0 -0.09,0.14 -0.19,0.18 z"/><path id="path5515" d="m 279.39,230.66 -0.42,0.37 -0.68,-0.6 0.06,-0.08 0.03,-0.15 0.92,-0.07 0.09,0.53"/><path id="path5517" d="m 278.24,230.29 c 0.05,-0.15 0.18,-0.23 0.28,-0.2 0.11,0.04 0.15,0.18 0.1,0.33 -0.05,0.15 -0.18,0.23 -0.29,0.2 -0.11,-0.04 -0.15,-0.18 -0.09,-0.33 z"/><path id="path5519" d="m 283.67,231.77 -0.59,-0.06 -0.25,0.85 0.05,0.14 0.15,0.01 0.83,-0.41 -0.19,-0.53"/><path id="path5521" d="m 282.01,232.03 -0.1,0.54 0.9,0.23 0.15,-0.04 0.01,-0.14 -0.43,-0.79 -0.53,0.2"/><path id="path5523" d="m 283.73,233.36 -0.53,0.2 -0.42,-0.78 0.01,-0.15 0.15,-0.03 0.89,0.23 -0.1,0.53"/><path id="path5525" d="m 282.65,232.54 c 0.1,-0.12 0.28,-0.13 0.4,-0.04 0.13,0.09 0.15,0.26 0.05,0.38 -0.1,0.12 -0.28,0.13 -0.41,0.04 -0.12,-0.09 -0.14,-0.26 -0.04,-0.38 z"/><path id="path5527" d="m 285.64,233.61 0.11,0.55 -0.87,0.3 -0.16,-0.04 -0.01,-0.14 0.36,-0.81 0.57,0.14"/><path id="path5529" d="m 285.49,235.2 -0.56,0.13 -0.31,-0.83 0.04,-0.15 0.15,-0.02 0.85,0.35 -0.17,0.52"/><path id="path5531" d="m 283.97,233.66 -0.18,0.52 0.85,0.34 0.16,-0.02 0.03,-0.14 -0.3,-0.83 -0.56,0.13"/><path id="path5533" d="m 284.91,234.63 c 0.12,-0.11 0.12,-0.28 0.02,-0.39 -0.11,-0.11 -0.29,-0.11 -0.41,-0.02 -0.11,0.11 -0.12,0.28 -0.01,0.39 0.1,0.11 0.29,0.12 0.4,0.02 z"/><path id="path5535" d="m 286.29,236.43 c 0,0.01 0.5,0.03 0.79,0.09 0.2,0.04 0.52,0.27 0.52,0.27 0.06,-0.04 0.12,-0.42 -0.28,-0.79 -0.39,-0.28 -0.88,0.22 -0.88,0.22 0,0 -0.12,0.12 -0.15,0.21 z"/><path id="path5537" d="m 285.75,235.54 -0.29,0.46 0.76,0.51 0.09,-0.08 0.13,-0.04 -0.12,-0.88 -0.57,0.03"/><path id="path5539" d="m 286.37,236.53 c 0.14,-0.07 0.21,-0.22 0.15,-0.31 -0.06,-0.09 -0.22,-0.1 -0.36,-0.02 -0.14,0.08 -0.2,0.22 -0.14,0.31 0.05,0.09 0.21,0.1 0.35,0.02 z"/></g></g><g id="inescutcheon" style="stroke-width:.61000001"><ellipse id="ellipse5542" cx="250.43" cy="281.01" rx="16.26" ry="18.3" style="fill:#ad1519"/><ellipse id="ellipse5544" cx="250.44" cy="280.97" rx="11.44" ry="13.42" style="fill:#005bbf"/><g id="fdl" style="fill:#c8b100;stroke-width:.34"><path id="path5547" d="m 245.03,271.74 c 0,0 -1.35,1.48 -1.35,2.86 0,1.39 0.57,2.54 0.57,2.54 -0.21,-0.55 -0.76,-0.94 -1.41,-0.94 -0.83,0 -1.5,0.63 -1.5,1.42 0,0.22 0.14,0.58 0.24,0.77 l 0.49,0.99 c 0.16,-0.37 0.54,-0.57 0.98,-0.57 0.59,0 1.08,0.45 1.08,1.01 0,0.09 -0.01,0.17 -0.04,0.25 l -1.22,0.01 0,1.03 1.09,0 -0.81,1.61 1.07,-0.42 0.81,0.91 0.84,-0.91 1.07,0.42 -0.8,-1.61 1.08,0 0,-1.03 -1.22,-0.01 c -0.02,-0.08 -0.02,-0.16 -0.02,-0.25 0,-0.56 0.47,-1.01 1.06,-1.01 0.44,0 0.82,0.2 0.98,0.57 l 0.49,-0.99 c 0.1,-0.19 0.24,-0.55 0.24,-0.77 0,-0.79 -0.67,-1.42 -1.49,-1.42 -0.66,0 -1.21,0.39 -1.41,0.94 0,0 0.57,-1.15 0.57,-2.54 0,-1.38 -1.39,-2.86 -1.39,-2.86 z" style="stroke-linejoin:round"/><path id="path5549" d="m 242.87,281.11 4.36,0 0,-1.03 -4.36,0 0,1.03 z"/></g><use id="use5551" width="100%" height="100%" x="10.63" y="0" xlink:href="#fdl"/><use id="use5553" width="100%" height="100%" x="5.31" y="9.14" xlink:href="#fdl"/></g></g></g></g></svg>